<svg xmlns="http://www.w3.org/2000/svg" width="65.548" height="65.548" viewBox="0 0 65.548 65.548">
  <path id="coins-solid" d="M0,51.888v5.467c0,4.519,11.01,8.194,24.581,8.194s24.581-3.674,24.581-8.194V51.888c-5.287,3.725-14.953,5.467-24.581,5.467S5.287,55.614,0,51.888Zm40.968-35.5c13.571,0,24.581-3.674,24.581-8.194S54.538,0,40.968,0,16.387,3.674,16.387,8.194,27.4,16.387,40.968,16.387ZM0,38.458v6.606c0,4.519,11.01,8.194,24.581,8.194s24.581-3.674,24.581-8.194V38.458c-5.287,4.353-14.966,6.606-24.581,6.606S5.287,42.811,0,38.458Zm53.258,1.408c7.336-1.421,12.29-4.058,12.29-7.093V27.307c-2.97,2.1-7.336,3.533-12.29,4.417ZM24.581,20.484C11.01,20.484,0,25.067,0,30.726S11.01,40.968,24.581,40.968s24.581-4.583,24.581-10.242S38.151,20.484,24.581,20.484Zm28.076,7.208c7.681-1.383,12.892-4.1,12.892-7.208V15.017C61,18.231,53.194,19.959,44.975,20.369,48.751,22.2,51.53,24.657,52.656,27.692Z"/>
</svg>
