<svg xmlns="http://www.w3.org/2000/svg" width="44.803" height="79.667" viewBox="0 0 44.803 79.667">
  <path id="dollar-sign-solid" d="M32.582,36.317,15.777,31.4a4.589,4.589,0,0,1,1.291-8.994H27.385a9.5,9.5,0,0,1,5.321,1.634,2.426,2.426,0,0,0,3.034-.311l5.415-5.29a2.522,2.522,0,0,0-.28-3.812A22,22,0,0,0,27.416,9.958V2.49A2.5,2.5,0,0,0,24.927,0H19.947a2.5,2.5,0,0,0-2.49,2.49V9.958h-.389A17.048,17.048,0,0,0,.109,28.568C.762,35.741,6.239,41.576,13.148,43.6L29.1,48.267a4.589,4.589,0,0,1-1.291,8.994H17.489a9.5,9.5,0,0,1-5.321-1.634,2.426,2.426,0,0,0-3.034.311l-5.415,5.29A2.522,2.522,0,0,0,4,65.041a22,22,0,0,0,13.459,4.668v7.469a2.5,2.5,0,0,0,2.49,2.49h4.979a2.5,2.5,0,0,0,2.49-2.49v-7.5c7.251-.14,14.051-4.45,16.447-11.312A17.086,17.086,0,0,0,32.582,36.317Z" transform="translate(-0.036)"/>
</svg>
