<svg xmlns="http://www.w3.org/2000/svg" width="79.749" height="53.166" viewBox="0 0 79.749 53.166">
  <path id="eye-solid" d="M79.268,88.562C71.759,73.912,56.9,64,39.875,64S7.986,73.919.482,88.563a4.479,4.479,0,0,0,0,4.041c7.508,14.65,22.373,24.562,39.393,24.562S71.764,107.247,79.268,92.6a4.479,4.479,0,0,0,0-4.041ZM39.875,110.52A19.937,19.937,0,1,1,59.812,90.583,19.937,19.937,0,0,1,39.875,110.52Zm0-33.229a13.2,13.2,0,0,0-3.5.525,6.625,6.625,0,0,1-9.263,9.263,13.261,13.261,0,1,0,12.767-9.787Z" transform="translate(-0.001 -64)" fill="#fff"/>
</svg>
