<svg xmlns="http://www.w3.org/2000/svg" width="74.446" height="66.173" viewBox="0 0 74.446 66.173">
  <path id="hand-holding-usd-solid" d="M35.033,18.65,42.047,20.5a1.11,1.11,0,0,1,.857,1.047,1.139,1.139,0,0,1-1.179,1.086h-4.6a3.877,3.877,0,0,1-1.446-.284A1.852,1.852,0,0,0,33.7,22.6l-2.456,2.262a1.51,1.51,0,0,0-.291.344,1.476,1.476,0,0,0,.5,2.034,10.827,10.827,0,0,0,4.46,1.486v2.288a2.169,2.169,0,0,0,2.245,2.068h2.245a2.17,2.17,0,0,0,2.246-2.068V28.744c4.256-.465,7.475-4.007,6.915-8.142a7.838,7.838,0,0,0-6.018-6.165l-7.014-1.848a1.11,1.11,0,0,1-.857-1.047,1.139,1.139,0,0,1,1.179-1.086h4.6a3.877,3.877,0,0,1,1.451.284,1.852,1.852,0,0,0,1.977-.258L47.342,8.22a1.462,1.462,0,0,0,.28-.336,1.477,1.477,0,0,0-.5-2.039,10.833,10.833,0,0,0-4.461-1.486V2.068A2.169,2.169,0,0,0,40.42,0H38.175A2.169,2.169,0,0,0,35.93,2.068V4.343c-4.251.465-7.477,4.007-6.916,8.142C29.42,15.458,31.923,17.823,35.033,18.65ZM73.058,42.4a4.278,4.278,0,0,0-5.506,0L55.61,51.956a8.225,8.225,0,0,1-5.17,1.809H35.154a2.068,2.068,0,0,1,0-4.136H45.273a4.29,4.29,0,0,0,4.3-3.438,4.032,4.032,0,0,0,.059-.706,4.136,4.136,0,0,0-4.136-4.128H24.815a15.207,15.207,0,0,0-9.577,3.4L9.228,49.63H2.068A2.068,2.068,0,0,0,0,51.7V64.1a2.068,2.068,0,0,0,2.068,2.068h46.11a8.272,8.272,0,0,0,5.17-1.809L72.893,48.725a4.136,4.136,0,0,0,.165-6.32Z"/>
</svg>
