<svg xmlns="http://www.w3.org/2000/svg" width="49.887" height="40.323" viewBox="0 0 49.887 40.323">
  <g id="icon-user-black" transform="translate(0 -2.987)">
    <circle id="Ellipse_33" data-name="Ellipse 33" cx="8" cy="8" r="8" transform="translate(16.943 10.154)" fill="none" stroke="#000" stroke-linecap="round" stroke-linejoin="round" stroke-width="2"/>
    <path id="Path_11765" data-name="Path 11765" d="M31.347,32.174A11.174,11.174,0,1,0,9,32.174Z" transform="translate(4.77 10.136)" fill="none" stroke="#000" stroke-linecap="round" stroke-linejoin="round" stroke-width="2"/>
    <path id="Path_11766" data-name="Path 11766" d="M26.385,19.962A7.981,7.981,0,1,0,20,7.193" transform="translate(11.328)" fill="none" stroke="#000" stroke-linecap="round" stroke-linejoin="round" stroke-width="2"/>
    <path id="Path_11767" data-name="Path 11767" d="M25.6,28.174h9.577A11.174,11.174,0,0,0,24,17" transform="translate(13.713 7.751)" fill="none" stroke="#000" stroke-linecap="round" stroke-linejoin="round" stroke-width="2"/>
    <path id="Path_11768" data-name="Path 11768" d="M17.366,7.193a7.981,7.981,0,1,0-6.385,12.77" transform="translate(1.192 0)" fill="none" stroke="#000" stroke-linecap="round" stroke-linejoin="round" stroke-width="2"/>
    <path id="Path_11769" data-name="Path 11769" d="M12.174,17A11.174,11.174,0,0,0,1,28.174h9.577" transform="translate(0 7.751)" fill="none" stroke="#000" stroke-linecap="round" stroke-linejoin="round" stroke-width="2"/>
  </g>
</svg>
