<svg id="icon-failing" xmlns="http://www.w3.org/2000/svg" width="40.542" height="54.28" viewBox="0 0 40.542 54.28">
  <path id="Path_2168" data-name="Path 2168" d="M270.005,23.588v9.253h9.151Z" transform="translate(-239.598 -22.593)"/>
  <path id="Path_2172" data-name="Path 2172" d="M35.4,263.046a1.689,1.689,0,0,0-2.389,0L30.756,265.3a1.694,1.694,0,0,1-2.389,0l-2.257-2.256a1.689,1.689,0,0,0-2.389,0L21.465,265.3a1.694,1.694,0,0,1-2.389,0l-2.257-2.256a1.689,1.689,0,0,0-2.389,0L12.174,265.3a1.694,1.694,0,0,1-2.389,0l-2.256-2.256a1.689,1.689,0,0,0-2.389,0L.495,267.691A1.689,1.689,0,0,0,0,268.886v18.35a1.689,1.689,0,0,0,1.689,1.689H38.853a1.689,1.689,0,0,0,1.689-1.689v-18.35a1.69,1.69,0,0,0-.495-1.195Z" transform="translate(0 -234.645)"/>
  <path id="Path_2173" data-name="Path 2173" d="M27.028,26.689V14.752H1.689A1.689,1.689,0,0,0,0,16.441V39.412a1.689,1.689,0,0,0,2.884,1.219L5.14,38.375a1.694,1.694,0,0,1,2.389,0l2.256,2.256a1.689,1.689,0,0,0,2.389,0l2.257-2.257a1.694,1.694,0,0,1,2.389,0l2.237,2.237a1.733,1.733,0,0,0,.633.413,1.692,1.692,0,0,0,1.776-.393l2.256-2.256a1.694,1.694,0,0,1,2.389,0l2.237,2.237a1.733,1.733,0,0,0,.633.413,1.692,1.692,0,0,0,1.776-.393l2.256-2.257a1.694,1.694,0,0,1,2.389,0l2.236,2.236a1.712,1.712,0,0,0,1.44.5,1.691,1.691,0,0,0,1.465-1.675V28.378H28.717a1.689,1.689,0,0,1-1.689-1.689Z" transform="translate(0 -14.752)"/>
</svg>
