<svg id="icon-marketing" xmlns="http://www.w3.org/2000/svg" width="25.666" height="29.182" viewBox="0 0 25.666 29.182">
  <g id="Group_1057" data-name="Group 1057" transform="translate(0 1.089)">
    <g id="Group_1056" data-name="Group 1056">
      <path id="Path_2079" data-name="Path 2079" d="M54.567,29.518l-9.67-9.67A2.564,2.564,0,0,0,40.959,23.1l-.013.067a17.892,17.892,0,0,1-4.909,9.172L31.6,36.77a2.563,2.563,0,0,0,0,3.626l2.417,2.417a2.563,2.563,0,0,0,3.626,0l.6-.6L42.48,46.44a2.564,2.564,0,1,0,3.626-3.626L44.293,41l.6-.6a2.563,2.563,0,0,0,0-3.626l-.411-.411a17.894,17.894,0,0,1,6.766-2.89l.068-.014a2.567,2.567,0,0,0,3.247-.312h0A2.567,2.567,0,0,0,54.567,29.518ZM36.436,41.6a.854.854,0,0,1-1.209,0L32.81,39.187a.854.854,0,0,1,0-1.209l4.231-4.231,3.626,3.626ZM44.9,44.022a.855.855,0,0,1-1.209,1.209L39.458,41l1.209-1.209Zm-3.022-5.439c.257-.257.642-.651,1.249-1.169l.565.565a.854.854,0,0,1,0,1.209l-.6.6Zm.036-2.381-3.7-3.7a19.573,19.573,0,0,0,4.161-7.926l7.464,7.464A19.572,19.572,0,0,0,41.912,36.2Zm11.447-4.267a.854.854,0,0,1-1.209,0l-9.67-9.67a.855.855,0,1,1,1.209-1.209l9.67,9.67A.856.856,0,0,1,53.359,31.935Z" transform="translate(-30.849 -19.098)" fill="#fff"/>
    </g>
  </g>
  <g id="Group_1059" data-name="Group 1059" transform="translate(4.128 18.51)">
    <g id="Group_1058" data-name="Group 1058">
      <path id="Path_2080" data-name="Path 2080" d="M105.934,325.012a.855.855,0,0,0-1.209,0l-1.209,1.209a.855.855,0,0,0,1.209,1.209l1.209-1.209A.855.855,0,0,0,105.934,325.012Z" transform="translate(-103.266 -324.762)" fill="#fff"/>
    </g>
  </g>
  <g id="Group_1061" data-name="Group 1061" transform="translate(17.119)">
    <g id="Group_1060" data-name="Group 1060">
      <path id="Path_2081" data-name="Path 2081" d="M332.049,0a.855.855,0,0,0-.855.855V2.564a.855.855,0,0,0,1.709,0V.855A.855.855,0,0,0,332.049,0Z" transform="translate(-331.194 0)" fill="#fff"/>
    </g>
  </g>
  <g id="Group_1063" data-name="Group 1063" transform="translate(22.247 6.838)">
    <g id="Group_1062" data-name="Group 1062">
      <path id="Path_2082" data-name="Path 2082" d="M423.733,119.966h-1.71a.855.855,0,0,0,0,1.709h1.71a.855.855,0,0,0,0-1.709Z" transform="translate(-421.169 -119.966)" fill="#fff"/>
    </g>
  </g>
  <g id="Group_1065" data-name="Group 1065" transform="translate(20.538 1.709)">
    <g id="Group_1064" data-name="Group 1064">
      <path id="Path_2083" data-name="Path 2083" d="M394.347,30.241a.855.855,0,0,0-1.209,0l-1.709,1.709a.855.855,0,1,0,1.209,1.209l1.709-1.709A.855.855,0,0,0,394.347,30.241Z" transform="translate(-391.178 -29.991)" fill="#fff"/>
    </g>
  </g>
</svg>
