<svg id="icon-sale" xmlns="http://www.w3.org/2000/svg" width="25.546" height="24.423" viewBox="0 0 25.546 24.423">
  <path id="Path_2089" data-name="Path 2089" d="M16.9,40.3a1.274,1.274,0,0,0-1.8,0l-.6.6a.425.425,0,0,1-.6,0l-.6-.6a.425.425,0,0,1,0-.6l1.2-1.2a.425.425,0,1,0-.6-.6l-1.2,1.2a1.274,1.274,0,0,0,0,1.8l.6.6a1.274,1.274,0,0,0,1.8,0l.6-.6a.425.425,0,0,1,.6,0l.6.6a.425.425,0,0,1,0,.6l-1.2,1.2a.425.425,0,1,0,.6.6l1.2-1.2a1.274,1.274,0,0,0,0-1.8Z" transform="translate(-7.869 -23.71)" fill="#fff"/>
  <path id="Path_2090" data-name="Path 2090" d="M26.727,33.884l-4.5-2.7a.425.425,0,0,0-.518.064l-.6.6a.425.425,0,0,0-.064.518l2.7,4.5a.425.425,0,0,0,.728-.437l-.73-1.217,1.332-1.332,1.217.73a.425.425,0,0,0,.437-.728Zm-3.437.58-1.351-2.25.132-.132,2.25,1.351Z" transform="translate(-12.851 -19.88)" fill="#fff"/>
  <path id="Path_2091" data-name="Path 2091" d="M33.165,27.8l-1.5,1.5-3.3-3.3a.425.425,0,1,0-.6.6l3.6,3.6a.425.425,0,0,0,.6,0l1.8-1.8a.425.425,0,1,0-.6-.6Z" transform="translate(-16.681 -16.863)" fill="#fff"/>
  <path id="Path_2092" data-name="Path 2092" d="M40.229,18.706l-1.2,1.2-1.2-1.2.6-.6a.425.425,0,1,0-.6-.6l-.6.6-1.2-1.2,1.2-1.2a.425.425,0,1,0-.6-.6l-1.5,1.5a.425.425,0,0,0,0,.6l3.6,3.6a.425.425,0,0,0,.6,0l1.5-1.5a.425.425,0,1,0-.6-.6Z" transform="translate(-20.918 -10.591)" fill="#fff"/>
  <path id="Path_2093" data-name="Path 2093" d="M25.794,10.159l.472-3.07a2.123,2.123,0,0,0-2.411-2.42l-6.539.977a3.844,3.844,0,0,0-2.138,1.078L2.457,19.438a2.123,2.123,0,0,0,0,3l6.006,6.006a2.123,2.123,0,0,0,3,0l6.964-6.963c.728,3.559,2.366,5.817,4.282,5.817,2.619,0,4.671-4.288,4.671-9.766A15.919,15.919,0,0,0,25.794,10.159ZM10.865,27.845a1.3,1.3,0,0,1-1.8,0l-6-6a1.274,1.274,0,0,1,0-1.8L15.777,7.321a2.993,2.993,0,0,1,1.663-.838l6.539-.977a1.274,1.274,0,0,1,1.45,1.455L25.1,9.1a4.374,4.374,0,0,0-.827-.789,1.686,1.686,0,0,0-.5-1.183,1.741,1.741,0,0,0-2.4,0A1.7,1.7,0,1,0,24.027,9.2a4.742,4.742,0,0,1,.885,1.116l-.485,3.152a2.953,2.953,0,0,1-.836,1.65ZM22.711,8.617a1.613,1.613,0,0,1,.6.121.859.859,0,1,1-.046-.9,2.387,2.387,0,0,0-.557-.075.425.425,0,0,0,0,.849Zm0,17.833c-1.535,0-2.979-2.335-3.552-5.7l5.03-5.031A3.793,3.793,0,0,0,25.265,13.6l.3-1.92a16.671,16.671,0,0,1,.971,5.857C26.532,22.367,24.782,26.451,22.711,26.451Z" transform="translate(-1.836 -4.645)" fill="#fff"/>
</svg>
