<svg xmlns="http://www.w3.org/2000/svg" width="34.271" height="36.96" viewBox="0 0 34.271 36.96">
  <g id="icon-trash" transform="translate(-3 -2)">
    <path id="Path_158" data-name="Path 158" d="M33.582,13.378H6.689A2.7,2.7,0,0,1,4,10.689V8H36.271v2.689A2.7,2.7,0,0,1,33.582,13.378Z" transform="translate(0 1.723)" fill="none" stroke="#babebc" stroke-linecap="round" stroke-linejoin="round" stroke-miterlimit="10" stroke-width="2"/>
    <path id="Path_159" data-name="Path 159" d="M30.2,34.859H8.689A2.7,2.7,0,0,1,6,32.169V12H32.892V32.169A2.7,2.7,0,0,1,30.2,34.859Z" transform="translate(0.689 3.102)" fill="none" stroke="#babebc" stroke-linecap="round" stroke-linejoin="round" stroke-miterlimit="10" stroke-width="2"/>
    <line id="Line_5" data-name="Line 5" x2="11.83" transform="translate(14.14 19.9)" fill="none" stroke="#babebc" stroke-linecap="round" stroke-linejoin="round" stroke-miterlimit="10" stroke-width="2"/>
    <path id="Path_160" data-name="Path 160" d="M29.548,3H10.723A2.807,2.807,0,0,0,8.572,4.076L4,9.723H36.271L31.7,4.076A2.807,2.807,0,0,0,29.548,3Z" transform="translate(0 0)" fill="none" stroke="#babebc" stroke-linecap="round" stroke-linejoin="round" stroke-miterlimit="10" stroke-width="2"/>
  </g>
</svg>
