<svg id="icon-visits" xmlns="http://www.w3.org/2000/svg" width="96.706" height="92.275" viewBox="0 0 96.706 92.275">
  <g id="Group_8" data-name="Group 8">
    <path id="Path_4" data-name="Path 4" d="M88.206,59.654H85.373v-2.7a8.321,8.321,0,0,0-8.5-8.11H51.186V43.434h8.5a2.706,2.706,0,1,0,0-5.407H56.852V32.621h8.5a8.321,8.321,0,0,0,8.5-8.11V8.11A8.321,8.321,0,0,0,65.352,0h-34a8.321,8.321,0,0,0-8.5,8.11v16.4a8.321,8.321,0,0,0,8.5,8.11h8.5v5.407H37.02a2.706,2.706,0,1,0,0,5.407h8.5v5.407H19.832a8.321,8.321,0,0,0-8.5,8.11v2.7H8.5A8.321,8.321,0,0,0,0,67.764v5.407a8.321,8.321,0,0,0,8.5,8.11h2.833v5.587H8.5a2.706,2.706,0,1,0,0,5.407H19.832a2.706,2.706,0,1,0,0-5.407H17V81.281h2.833a8.321,8.321,0,0,0,8.5-8.11V67.764a8.321,8.321,0,0,0-8.5-8.11H17v-2.7a2.774,2.774,0,0,1,2.833-2.7H45.52v5.407H42.686a8.321,8.321,0,0,0-8.5,8.11v5.407a8.321,8.321,0,0,0,8.5,8.11H45.52v5.587H42.686a2.706,2.706,0,1,0,0,5.407H54.019a2.706,2.706,0,1,0,0-5.407H51.186V81.281h2.833a8.321,8.321,0,0,0,8.5-8.11V67.764a8.321,8.321,0,0,0-8.5-8.11H51.186V54.248H76.873a2.774,2.774,0,0,1,2.833,2.7v2.7H76.873a8.321,8.321,0,0,0-8.5,8.11v5.407a8.321,8.321,0,0,0,8.5,8.11h2.833v5.587H76.873a2.706,2.706,0,1,0,0,5.407H88.206a2.706,2.706,0,1,0,0-5.407H85.373V81.281h2.833a8.321,8.321,0,0,0,8.5-8.11V67.764A8.321,8.321,0,0,0,88.206,59.654ZM19.832,65.061a2.774,2.774,0,0,1,2.833,2.7v5.407a2.774,2.774,0,0,1-2.833,2.7H8.5a2.774,2.774,0,0,1-2.833-2.7V67.764a2.774,2.774,0,0,1,2.833-2.7ZM31.354,27.214a2.774,2.774,0,0,1-2.833-2.7V8.11a2.774,2.774,0,0,1,2.833-2.7h34a2.774,2.774,0,0,1,2.833,2.7v16.4a2.774,2.774,0,0,1-2.833,2.7ZM54.019,65.061a2.774,2.774,0,0,1,2.833,2.7v5.407a2.774,2.774,0,0,1-2.833,2.7H42.686a2.774,2.774,0,0,1-2.833-2.7V67.764a2.774,2.774,0,0,1,2.833-2.7Zm-8.5-27.034V32.621h5.666v5.407Zm45.52,35.144a2.774,2.774,0,0,1-2.833,2.7H76.873a2.774,2.774,0,0,1-2.833-2.7V67.764a2.774,2.774,0,0,1,2.833-2.7H88.206a2.774,2.774,0,0,1,2.833,2.7Z" fill="#fff"/>
  </g>
</svg>
