<svg xmlns="http://www.w3.org/2000/svg" width="35.993" height="35.997" viewBox="0 0 35.993 35.997">
  <g id="icon-number" transform="translate(-52.2 -52.2)">
    <path id="Path_13023" data-name="Path 13023" d="M85.743,88.2H54.654A2.456,2.456,0,0,1,52.2,85.743V54.654A2.456,2.456,0,0,1,54.654,52.2H85.739a2.456,2.456,0,0,1,2.454,2.454V85.739A2.456,2.456,0,0,1,85.743,88.2ZM54.654,53.836a.82.82,0,0,0-.818.818V85.739a.82.82,0,0,0,.818.818H85.739a.82.82,0,0,0,.818-.818V54.654a.82.82,0,0,0-.818-.818Z" transform="translate(0 0)" fill="#333"/>
    <path id="Path_13024" data-name="Path 13024" d="M227.174,254.9a.82.82,0,0,1-.642-.309l-5.085-6.424v5.915a.818.818,0,1,1-1.636,0v-8.267a.818.818,0,0,1,1.46-.5l5.085,6.42v-5.915a.818.818,0,1,1,1.636,0v8.267a.822.822,0,0,1-.818.818Zm8.177-.043a4.909,4.909,0,1,1,4.909-4.909A4.914,4.914,0,0,1,235.351,254.86Zm0-8.181a3.272,3.272,0,1,0,3.272,3.272A3.276,3.276,0,0,0,235.351,246.679Zm6.138,20.429H220.218a.818.818,0,0,1,0-1.636h21.267a.818.818,0,0,1,0,1.636Z" transform="translate(-160.655 -185.253)" fill="#333"/>
    <path id="Path_13025" data-name="Path 13025" d="M763.618,465.818m-.818,0a.818.818,0,1,0,.818-.818A.818.818,0,0,0,762.8,465.818Z" transform="translate(-682.784 -396.641)" fill="#333"/>
  </g>
</svg>
