<svg id="icon-photo-camera" xmlns="http://www.w3.org/2000/svg" width="93.532" height="73.171" viewBox="0 0 93.532 73.171">
  <g id="Group_3658" data-name="Group 3658" transform="translate(0 0)">
    <g id="Group_3657" data-name="Group 3657">
      <path id="Path_2144" data-name="Path 2144" d="M82.349,59.829h-9.76L67.2,51.876A11.272,11.272,0,0,0,57.949,47.1H35.583a11.272,11.272,0,0,0-9.252,4.772l-5.388,7.953h-9.76A11.03,11.03,0,0,0,0,70.765v38.574a11.03,11.03,0,0,0,11.183,10.936H82.349a11.03,11.03,0,0,0,11.183-10.936V70.765A11.03,11.03,0,0,0,82.349,59.829Zm-35.583,51.5c-13.928,0-25.213-11.035-25.213-24.655S32.838,62.116,46.766,62.116,71.979,73.151,71.979,86.771C71.979,100.292,60.694,111.327,46.766,111.327Zm34.16-36.088H76.452a3.232,3.232,0,0,1,0-6.462h4.067a3.272,3.272,0,0,1,3.457,3.082A3.173,3.173,0,0,1,80.926,75.239Z" transform="translate(0 -47.104)"/>
    </g>
  </g>
  <g id="Group_3660" data-name="Group 3660" transform="translate(37.559 29.821)">
    <g id="Group_3659" data-name="Group 3659" transform="translate(0 0)">
      <path id="Path_2145" data-name="Path 2145" d="M174.071,180.736c-5.07,0-9.207,4.621-9.207,10.286s4.136,10.212,9.207,10.212,9.207-4.621,9.207-10.286S179.141,180.736,174.071,180.736Z" transform="translate(-164.864 -180.736)"/>
    </g>
  </g>
</svg>
