<svg xmlns="http://www.w3.org/2000/svg" width="25.714" height="26.723" viewBox="0 0 25.714 26.723">
  <path id="icon-returns" d="M17.682,20.428a10.813,10.813,0,0,1,7.452-3H34.7l-2.776-2.776a1.653,1.653,0,1,1,2.338-2.338l5.479,5.48a1.632,1.632,0,0,1,0,2.338l-5.7,5.7A1.653,1.653,0,0,1,31.709,23.5l2.776-2.776H25.061a7.27,7.27,0,0,0-7.087,8.621,7.417,7.417,0,0,0,3.653,5.041,10.789,10.789,0,0,0,5.041.8,1.681,1.681,0,0,1,0,3.361,15.105,15.105,0,0,1-5.114-.584,10.6,10.6,0,0,1-3.872-17.535Z" transform="translate(-14.525 -11.825)" fill="#fff"/>
</svg>
