<svg xmlns="http://www.w3.org/2000/svg" width="47.045" height="38.224" viewBox="0 0 47.045 38.224">
  <g id="icon-shipping" transform="translate(0 -3)">
    <path id="Path_373" data-name="Path 373" d="M26.163,11.654A1.472,1.472,0,0,0,24.94,11H23.47A1.469,1.469,0,0,0,22,12.47v8.821a1.469,1.469,0,0,0,1.47,1.47h5.881a1.469,1.469,0,0,0,1.47-1.47V19.086a1.478,1.478,0,0,0-.247-.816Zm3.187,9.637H23.47V12.47h1.47l4.41,6.616Z" transform="translate(10.343 3.761)"/>
    <path id="Path_374" data-name="Path 374" d="M46.3,21.136l-5.881-8.821a4.4,4.4,0,0,0-3.67-1.964H30.873V7.41A4.416,4.416,0,0,0,26.463,3H4.41A4.416,4.416,0,0,0,0,7.41V23.582a4.416,4.416,0,0,0,4.41,4.41h0V32.4a4.416,4.416,0,0,0,4.41,4.41H10.5a5.852,5.852,0,0,0,11.344,0h7.765a5.852,5.852,0,0,0,11.344,0h1.682a4.416,4.416,0,0,0,4.41-4.41V23.582A4.391,4.391,0,0,0,46.3,21.136ZM4.41,25.052a1.47,1.47,0,0,1-1.47-1.47V7.41A1.47,1.47,0,0,1,4.41,5.94H26.463a1.469,1.469,0,0,1,1.47,1.47V23.582a1.469,1.469,0,0,1-1.47,1.47ZM16.173,38.284a2.94,2.94,0,1,1,2.94-2.94A2.94,2.94,0,0,1,16.173,38.284Zm19.111,0a2.94,2.94,0,1,1,2.94-2.94A2.94,2.94,0,0,1,35.284,38.284ZM44.1,32.4a1.469,1.469,0,0,1-1.47,1.47h-1.68a5.852,5.852,0,0,0-11.344,0H21.845a5.852,5.852,0,0,0-11.344,0H8.821a1.47,1.47,0,0,1-1.47-1.47v-4.41H26.463a4.416,4.416,0,0,0,4.41-4.41V13.291h5.881a1.472,1.472,0,0,1,1.223.654l5.881,8.821a1.478,1.478,0,0,1,.247.816Z"/>
  </g>
</svg>
