<svg xmlns="http://www.w3.org/2000/svg" width="39.46" height="54.493" viewBox="0 0 39.46 54.493">
  <g id="icon-flag" transform="translate(-170.859 -141.15)">
    <path id="Path_11800" data-name="Path 11800" d="M173.608,195.643a2.8,2.8,0,0,1-2.749-2.838V143.988a2.75,2.75,0,1,1,5.5,0V192.8A2.794,2.794,0,0,1,173.608,195.643Zm12.821-49.516a11.27,11.27,0,0,0-2.6.857c-.81.332-1.581.683-2.091.922v18.945l.388-.157a12.365,12.365,0,0,1,4.284-1.126,16.994,16.994,0,0,1,9.586,2.7,11.364,11.364,0,0,0,6.62,1.935,11.983,11.983,0,0,0,2.789-.835c.833-.313,1.626-.644,2.167-.877V149.475c-.184.071-.371.141-.559.211a12.8,12.8,0,0,1-4.388,1.076,16.513,16.513,0,0,1-9.285-2.644,11.8,11.8,0,0,0-6.91-1.992m-.021-2.838c8.245,0,8.245,4.636,16.216,4.636,1.546,0,5.513-1.709,6.536-2.162a.826.826,0,0,1,.333-.071.76.76,0,0,1,.5.187.957.957,0,0,1,.323.721v23.224a.935.935,0,0,1-.817.94.768.768,0,0,0-.227.063c-.791.353-5.039,2.213-6.652,2.213-7.97,0-7.983-4.636-16.216-4.636-1.481,0-5.22,1.746-6.242,2.238a.823.823,0,0,1-.356.082.766.766,0,0,1-.551-.229.959.959,0,0,1-.271-.671V146.6a.936.936,0,0,1,.8-.939.805.805,0,0,0,.25-.074c.79-.383,4.818-2.3,6.37-2.3Z"/>
  </g>
</svg>
