<svg xmlns="http://www.w3.org/2000/svg" width="103.83" height="101.351" viewBox="0 0 103.83 101.351">
  <path id="icon-cubes" d="M111.83,94.215a1.888,1.888,0,0,0-1.1-1.772L86.71,82.612V51.125h-.065a1.926,1.926,0,0,0-1.038-2.276L60.486,38.567a1.479,1.479,0,0,0-1.143,0L34.223,48.849a1.836,1.836,0,0,0-1.059,1.362H33.12v32.4L9.1,92.443a1.836,1.836,0,0,0-1.059,1.362H8v33.419h.042A1.933,1.933,0,0,0,9.1,129.406l25.12,10.281a1.473,1.473,0,0,0,1.143,0L59.915,129.64l24.549,10.048a1.473,1.473,0,0,0,1.143,0l25.12-10.281a1.813,1.813,0,0,0,1.04-1.268h.063V94.719S111.828,94.386,111.83,94.215ZM33.12,135.225l-21.771-8.91V96.906l21.771,8.912Zm1.675-32.734-20.22-8.276,20.088-8.224,20.222,8.278ZM58.24,126.315l-21.771,8.91V105.818L58.24,96.906Zm0-34.791L36.469,82.612v-29.3L58.24,62.224ZM39.7,50.621l20.22-8.276,20.22,8.276L59.915,58.9ZM83.36,53.312v29.3L61.589,91.524v-29.3Zm0,81.913-21.771-8.91V96.906l21.771,8.912Zm1.675-32.734-20.09-8.222,20.222-8.278,20.088,8.224Zm23.445,23.824-21.771,8.91V105.818l21.771-8.912Z" transform="translate(-8 -38.452)" fill="#fff"/>
</svg>
