<svg id="icon-clients-group" xmlns="http://www.w3.org/2000/svg" width="57.116" height="58.847" viewBox="0 0 57.116 58.847">
  <path id="Path_2" data-name="Path 2" d="M88.156,62.423h20.951a1.128,1.128,0,0,0,1.156-1.115V56.057a10.929,10.929,0,0,0-7.75-10.212,6.851,6.851,0,0,0,3.552-5.911,7.455,7.455,0,0,0-14.874-.007,6.874,6.874,0,0,0,3.558,5.911A10.929,10.929,0,0,0,87,56.051V61.3A1.129,1.129,0,0,0,88.156,62.423ZM98.632,35.236a4.917,4.917,0,0,1,5.1,4.691,5.118,5.118,0,0,1-10.2,0A4.917,4.917,0,0,1,98.632,35.236ZM89.34,56.051c0-4.737,4.157-8.6,9.292-8.6s9.292,3.853,9.292,8.6v4.13H89.34Z" transform="translate(-69.561 -33)"/>
  <g id="Group_56" data-name="Group 56" transform="translate(0 29.423)">
    <path id="Path_2-2" data-name="Path 2" d="M88.156,62.423h20.951a1.128,1.128,0,0,0,1.156-1.115V56.057a10.929,10.929,0,0,0-7.75-10.212,6.851,6.851,0,0,0,3.552-5.911,7.455,7.455,0,0,0-14.874-.007,6.874,6.874,0,0,0,3.558,5.911A10.929,10.929,0,0,0,87,56.051V61.3A1.129,1.129,0,0,0,88.156,62.423ZM98.632,35.236a4.917,4.917,0,0,1,5.1,4.691,5.118,5.118,0,0,1-10.2,0A4.917,4.917,0,0,1,98.632,35.236ZM89.34,56.051c0-4.737,4.157-8.6,9.292-8.6s9.292,3.853,9.292,8.6v4.13H89.34Z" transform="translate(-53.148 -33)"/>
    <path id="Path_2-3" data-name="Path 2" d="M88.156,62.423h20.951a1.128,1.128,0,0,0,1.156-1.115V56.057a10.929,10.929,0,0,0-7.75-10.212,6.851,6.851,0,0,0,3.552-5.911,7.455,7.455,0,0,0-14.874-.007,6.874,6.874,0,0,0,3.558,5.911A10.929,10.929,0,0,0,87,56.051V61.3A1.129,1.129,0,0,0,88.156,62.423ZM98.632,35.236a4.917,4.917,0,0,1,5.1,4.691,5.118,5.118,0,0,1-10.2,0A4.917,4.917,0,0,1,98.632,35.236ZM89.34,56.051c0-4.737,4.157-8.6,9.292-8.6s9.292,3.853,9.292,8.6v4.13H89.34Z" transform="translate(-87 -33)"/>
  </g>
</svg>
