<svg xmlns="http://www.w3.org/2000/svg" width="32.811" height="29.24" viewBox="0 0 32.811 29.24">
  <path id="icon-wallet" d="M33.811,29.68h0a3.566,3.566,0,0,1-3.566,3.566H4.566A3.566,3.566,0,0,1,1,29.68V8.995A2.853,2.853,0,0,1,3.853,6.142H18.241l5.777-2.093a.706.706,0,0,1,.9.42l.608,1.673H28.1a2.853,2.853,0,0,1,2.853,2.853v1.427h0a2.853,2.853,0,0,1,2.853,2.853ZM3.853,7.568h0a1.427,1.427,0,1,0,0,2.853H6.445c.009,0,.015-.011.024-.015L14.3,7.568ZM24.594,7.7l-.758-2.086h0l-1.463.53h0L18.442,7.568h-.007l-7.874,2.853H25.584Zm4.937,1.3A1.427,1.427,0,0,0,28.1,7.568H26.048l1.037,2.853h2.446Zm1.427,2.853H3.853a2.821,2.821,0,0,1-1.427-.4V29.68a2.14,2.14,0,0,0,2.14,2.14H30.245a2.14,2.14,0,0,0,2.14-2.14V24.687H29.531a2.853,2.853,0,1,1,0-5.706h2.853V13.274A1.427,1.427,0,0,0,30.958,11.848ZM32.384,23.26V20.407H29.531a1.427,1.427,0,1,0,0,2.853Zm-2.853-2.14h1.427v1.427H29.531Z" transform="translate(-1 -4.006)" fill="#707070" fill-rule="evenodd" opacity="0.5"/>
</svg>
