<svg id="icon-lang" xmlns="http://www.w3.org/2000/svg" width="36.506" height="36.506" viewBox="0 0 36.506 36.506">
  <g id="Group_73" data-name="Group 73">
    <path id="Path_384" data-name="Path 384" d="M25.858,30.421H3.8a3.808,3.808,0,0,1-3.8-3.8V3.8A3.808,3.808,0,0,1,3.8,0H15.971a.76.76,0,0,1,.719.514l9.887,28.9a.761.761,0,0,1-.719,1.007ZM3.8,1.521A2.284,2.284,0,0,0,1.521,3.8V26.619A2.284,2.284,0,0,0,3.8,28.9H24.793L15.428,1.521Z"/>
  </g>
  <g id="Group_74" data-name="Group 74" transform="translate(17.492 6.084)">
    <path id="Path_385" data-name="Path 385" d="M26.711,34.421H14.542a.76.76,0,0,1-.712-.493l-2.282-6.084a.761.761,0,0,1,1.424-.535l2.1,5.591H26.711a2.284,2.284,0,0,0,2.282-2.282V7.8a2.284,2.284,0,0,0-2.282-2.282H12.261a.761.761,0,0,1,0-1.521h14.45a3.808,3.808,0,0,1,3.8,3.8V30.619A3.808,3.808,0,0,1,26.711,34.421Z" transform="translate(-11.5 -4)"/>
  </g>
  <g id="Group_75" data-name="Group 75" transform="translate(19.774 28.898)">
    <path id="Path_386" data-name="Path 386" d="M13.76,26.606a.761.761,0,0,1-.572-1.262l5.324-6.084a.761.761,0,1,1,1.145,1l-5.324,6.084A.764.764,0,0,1,13.76,26.606Z" transform="translate(-13 -18.999)"/>
  </g>
  <g id="Group_76" data-name="Group 76" transform="translate(6.084 9.177)">
    <path id="Path_387" data-name="Path 387" d="M12.366,18.151a.759.759,0,0,1-.716-.5L8.563,9,5.477,17.646a.761.761,0,1,1-1.433-.511l3.8-10.647a.791.791,0,0,1,1.431,0l3.8,10.647a.759.759,0,0,1-.461.972A.732.732,0,0,1,12.366,18.151Z" transform="translate(-4 -6.034)"/>
  </g>
  <g id="Group_77" data-name="Group 77" transform="translate(8.366 15.211)">
    <path id="Path_388" data-name="Path 388" d="M9.3,11.521H6.261a.761.761,0,1,1,0-1.521H9.3a.761.761,0,1,1,0,1.521Z" transform="translate(-5.5 -10)"/>
  </g>
  <g id="Group_78" data-name="Group 78" transform="translate(21.295 15.211)">
    <path id="Path_389" data-name="Path 389" d="M25.408,11.521H14.761a.761.761,0,0,1,0-1.521H25.408a.761.761,0,0,1,0,1.521Z" transform="translate(-14 -10)"/>
  </g>
  <g id="Group_79" data-name="Group 79" transform="translate(25.858 13.69)">
    <path id="Path_390" data-name="Path 390" d="M17.761,12.042A.761.761,0,0,1,17,11.282V9.761a.761.761,0,1,1,1.521,0v1.521A.761.761,0,0,1,17.761,12.042Z" transform="translate(-17 -9)"/>
  </g>
  <g id="Group_80" data-name="Group 80" transform="translate(23.576 15.212)">
    <path id="Path_391" data-name="Path 391" d="M16.261,20.647a.76.76,0,0,1-.441-1.38c3.33-2.365,5.765-7.19,5.765-8.506a.761.761,0,0,1,1.521,0c0,2-2.931,7.278-6.4,9.747A.772.772,0,0,1,16.261,20.647Z" transform="translate(-15.5 -10.001)"/>
  </g>
  <g id="Group_81" data-name="Group 81" transform="translate(23.577 19.014)">
    <path id="Path_392" data-name="Path 392" d="M22.345,20.866a.751.751,0,0,1-.513-.2c-.552-.5-5.412-4.994-6.276-7.12a.76.76,0,1,1,1.409-.572c.622,1.532,4.466,5.261,5.894,6.569a.761.761,0,0,1-.514,1.322Z" transform="translate(-15.5 -12.5)"/>
  </g>
</svg>
