<svg id="icon-setup-dots" xmlns="http://www.w3.org/2000/svg" width="32.874" height="32.285" viewBox="0 0 32.874 32.285">
  <g id="Group_9" data-name="Group 9">
    <path id="Path_5" data-name="Path 5" d="M4.6,2.189A3.844,3.844,0,1,1,.751,6.033,3.848,3.848,0,0,1,4.6,2.189Zm0,6.224a2.38,2.38,0,1,0-2.38-2.38A2.383,2.383,0,0,0,4.6,8.413Z" transform="translate(24.333 -2.189)" fill="#707070"/>
    <path id="Path_6" data-name="Path 6" d="M97.048,2.189A3.844,3.844,0,1,1,93.2,6.033,3.848,3.848,0,0,1,97.048,2.189Zm0,6.224a2.38,2.38,0,1,0-2.38-2.38A2.383,2.383,0,0,0,97.048,8.413Z" transform="translate(-80.561 -2.189)" fill="#707070"/>
    <path id="Path_7" data-name="Path 7" d="M191,9.877a3.844,3.844,0,1,1,3.844-3.844A3.848,3.848,0,0,1,191,9.877Zm0-6.224a2.38,2.38,0,1,0,2.38,2.38A2.383,2.383,0,0,0,191,3.653Z" transform="translate(-187.153 -2.189)" fill="#707070"/>
    <path id="Path_8" data-name="Path 8" d="M3.844,101.411a3.844,3.844,0,1,1,3.844-3.844A3.848,3.848,0,0,1,3.844,101.411Zm0-6.224a2.38,2.38,0,1,0,2.38,2.38A2.383,2.383,0,0,0,3.844,95.187Z" transform="translate(25.185 -81.405)" fill="#707070"/>
    <path id="Path_9" data-name="Path 9" d="M96.3,101.411a3.844,3.844,0,1,1,3.844-3.844A3.848,3.848,0,0,1,96.3,101.411Zm0-6.224a2.38,2.38,0,1,0,2.38,2.38A2.383,2.383,0,0,0,96.3,95.187Z" transform="translate(-79.716 -81.405)" fill="#707070"/>
    <path id="Path_10" data-name="Path 10" d="M190.252,101.411a3.844,3.844,0,1,1,3.844-3.844A3.848,3.848,0,0,1,190.252,101.411Zm0-6.224a2.38,2.38,0,1,0,2.38,2.38A2.383,2.383,0,0,0,190.252,95.187Z" transform="translate(-186.308 -81.405)" fill="#707070"/>
    <path id="Path_11" data-name="Path 11" d="M4.5,184.964a3.844,3.844,0,1,1-3.844,3.844A3.848,3.848,0,0,1,4.5,184.964Zm0,6.224a2.38,2.38,0,1,0-2.38-2.38A2.383,2.383,0,0,0,4.5,191.188Z" transform="translate(24.439 -160.368)" fill="#707070"/>
    <path id="Path_12" data-name="Path 12" d="M96.961,184.964a3.844,3.844,0,1,1-3.844,3.844A3.848,3.848,0,0,1,96.961,184.964Zm0,6.224a2.38,2.38,0,1,0-2.38-2.38A2.383,2.383,0,0,0,96.961,191.188Z" transform="translate(-80.462 -160.368)" fill="#707070"/>
    <path id="Path_13" data-name="Path 13" d="M190.91,184.964a3.844,3.844,0,1,1-3.844,3.844A3.848,3.848,0,0,1,190.91,184.964Zm0,6.224a2.38,2.38,0,1,0-2.38-2.38A2.383,2.383,0,0,0,190.91,191.188Z" transform="translate(-187.054 -160.368)" fill="#707070"/>
  </g>
</svg>
