<svg id="icon-group" xmlns="http://www.w3.org/2000/svg" width="127.615" height="93.459" viewBox="0 0 127.615 93.459">
  <g id="Group_10" data-name="Group 10" transform="translate(0)">
    <path id="Path_14" data-name="Path 14" d="M110.369,133.373a17.682,17.682,0,0,0,6.212-13.747c0-9.291-6.515-16.8-14.569-16.8s-14.569,7.514-14.569,16.8a17.6,17.6,0,0,0,6.212,13.747,24.751,24.751,0,0,0-8.61,5.825,31.644,31.644,0,0,0-11.817-7.427c5.328-3.728,8.913-10.514,8.913-18.232,0-11.766-8.257-21.29-18.458-21.29S45.223,101.8,45.223,113.54c0,7.718,3.56,14.5,8.913,18.232a31.9,31.9,0,0,0-11.691,7.339,24.914,24.914,0,0,0-8.509-5.708,17.682,17.682,0,0,0,6.212-13.747c0-9.291-6.515-16.8-14.569-16.8s-14.569,7.514-14.569,16.8A17.6,17.6,0,0,0,17.221,133.4C7.2,137.392,0,148.372,0,161.274V163.2a.118.118,0,0,0,.1.116H30.982a45.1,45.1,0,0,0-.278,4.922v1.98c0,8.563,6.01,15.494,13.433,15.494H83.276c7.424,0,13.433-6.931,13.433-15.494v-1.98a45.1,45.1,0,0,0-.278-4.922h31.083a.118.118,0,0,0,.1-.116v-1.922C127.565,148.343,120.394,137.363,110.369,133.373ZM91.482,119.6c0-6.7,4.722-12.145,10.529-12.145s10.529,5.446,10.529,12.145c0,6.611-4.621,12-10.327,12.145h-.4C96.078,131.626,91.482,126.238,91.482,119.6ZM49.213,113.54c0-9.174,6.464-16.63,14.418-16.63s14.418,7.456,14.418,16.63c0,8.854-6.035,16.106-13.585,16.6H62.8C55.248,129.645,49.213,122.393,49.213,113.54ZM14.973,119.6c0-6.7,4.722-12.145,10.529-12.145S36.032,112.9,36.032,119.6c0,6.611-4.621,12-10.327,12.145h-.4C19.594,131.626,14.973,126.238,14.973,119.6Zm16.716,39.026H4.091c1.136-12.407,10.226-22.134,21.261-22.222h.3a19.782,19.782,0,0,1,13.761,5.912A40.275,40.275,0,0,0,31.689,158.624Zm60.929,11.591c0,5.97-4.217,10.834-9.393,10.834H44.087c-5.176,0-9.393-4.864-9.393-10.834v-1.98c0-18.086,12.524-32.881,28.1-33.405a12.659,12.659,0,0,0,1.717,0c15.579.524,28.1,15.319,28.1,33.405Zm3-11.591a40.184,40.184,0,0,0-7.651-16.193A19.9,19.9,0,0,1,101.86,136.4h.3c11.034.087,20.125,9.815,21.261,22.222Z" transform="translate(0 -92.25)" fill="#f5f5f5"/>
  </g>
</svg>
