<svg id="icon-handshake" xmlns="http://www.w3.org/2000/svg" width="58.703" height="39.006" viewBox="0 0 58.703 39.006">
  <path id="Path_2180" data-name="Path 2180" d="M109.692,305.473a1.725,1.725,0,0,0,.157-2.433l-.095-.109a1.712,1.712,0,0,0-1.182-.578h-.115a1.712,1.712,0,0,0-1.135.428l-2.31,2.028-2.1,1.847a1.727,1.727,0,0,0-.156,2.432l.1.111a1.726,1.726,0,0,0,2.433.157l1.617-1.419Z" transform="translate(-90.456 -277.136)"/>
  <path id="Path_2181" data-name="Path 2181" d="M100.989,306.96c-.048,0-.095,0-.143,0a2.121,2.121,0,0,1-1.466-.721l-.1-.111a2.141,2.141,0,0,1,.194-3.012l4.416-3.878a2.145,2.145,0,0,1,1.548-.526,2.121,2.121,0,0,1,1.466.721l.135.158a2.134,2.134,0,0,1-.233,2.966L102.4,306.43A2.115,2.115,0,0,1,100.989,306.96Zm4.311-7.426a1.311,1.311,0,0,0-.863.33l-4.415,3.878a1.315,1.315,0,0,0-.118,1.85l.1.111a1.313,1.313,0,0,0,1.85.118l4.414-3.878a1.311,1.311,0,0,0,.119-1.849l-.1-.111a1.3,1.3,0,0,0-.9-.441Z" transform="translate(-87.301 -273.908)"/>
  <path id="Path_2182" data-name="Path 2182" d="M188.78,366.414a1.718,1.718,0,0,0-1.136.427l-2.278,2a1.725,1.725,0,1,0,2.275,2.593l2.278-2a1.724,1.724,0,0,0-1.139-3.02Z" transform="translate(-163.348 -333.767)"/>
  <path id="Path_2183" data-name="Path 2183" d="M183.355,369.312a2.136,2.136,0,0,1-1.412-3.743l2.279-2a2.2,2.2,0,0,1,3.016.2,2.138,2.138,0,0,1-.2,3.017l-2.278,2A2.126,2.126,0,0,1,183.355,369.312Zm2.276-5.446a1.308,1.308,0,0,0-.867.32l-2.279,2a1.313,1.313,0,1,0,1.733,1.973l2.279-2a1.311,1.311,0,0,0-.866-2.3Z" transform="translate(-160.198 -330.804)"/>
  <path id="Path_2184" data-name="Path 2184" d="M8.694,93.793,4.062,114l3.7,2.081,9.583-15.589Z" transform="translate(-3.591 -92.764)"/>
  <path id="Path_2185" data-name="Path 2185" d="M4.318,111.134,0,108.709,4.844,87.568,14.3,94.891ZM.942,108.291l3.088,1.733,9.182-14.935L5.361,89.012Z" transform="translate(0 -87.261)"/>
  <path id="Path_2186" data-name="Path 2186" d="M76.519,285.761a1.725,1.725,0,0,0,.158-2.434l-.03-.034a1.711,1.711,0,0,0-1.183-.583H75.35a1.712,1.712,0,0,0-1.135.428l-2.767,2.423a1.748,1.748,0,0,0,2.283,2.646l.022-.019.21-.184,2.106-1.848Z" transform="translate(-62.643 -259.77)"/>
  <path id="Path_2187" data-name="Path 2187" d="M69.517,285.882a1.483,1.483,0,0,1-.161-.006,2.193,2.193,0,0,1-1.49-.752,2.137,2.137,0,0,1,.2-3.016l2.763-2.425a2.16,2.16,0,0,1,2.849,3.246l-2.763,2.425A2.1,2.1,0,0,1,69.517,285.882Zm2.716-5.9a1.307,1.307,0,0,0-.863.33l-2.763,2.425a1.312,1.312,0,0,0-.121,1.852h0a1.372,1.372,0,0,0,.931.474,1.281,1.281,0,0,0,.95-.318l2.763-2.425a1.313,1.313,0,0,0,.12-1.852,1.329,1.329,0,0,0-.93-.478Z" transform="translate(-59.525 -256.626)"/>
  <path id="Path_2188" data-name="Path 2188" d="M147.374,336.5a1.712,1.712,0,0,0-.425-1.25l-.025-.028a1.711,1.711,0,0,0-1.181-.578h-.115a1.712,1.712,0,0,0-1.135.428l-.271.238-2.8,2.454-.743.649a1.751,1.751,0,0,0,1.05,3.045,1.707,1.707,0,0,0,1.25-.425l3.806-3.341a1.714,1.714,0,0,0,.583-1.192Z" transform="translate(-123.859 -305.678)"/>
  <path id="Path_2189" data-name="Path 2189" d="M138.627,338.651c-.047,0-.093,0-.14,0a2.156,2.156,0,0,1-1.3-3.767l3.8-3.345a2.156,2.156,0,0,1,1.548-.526,2.118,2.118,0,0,1,1.465.72,2.137,2.137,0,0,1-.166,3.045l-3.806,3.341A2.122,2.122,0,0,1,138.627,338.651Zm2.64-6.256-3.532,3.1a1.314,1.314,0,0,0-.124,1.852,1.331,1.331,0,0,0,.925.471,1.3,1.3,0,0,0,.954-.324l3.806-3.341a1.311,1.311,0,0,0,.122-1.85h0a1.32,1.32,0,0,0-.926-.472H142.4a1.293,1.293,0,0,0-.863.33Z" transform="translate(-120.637 -302.464)"/>
  <path id="Path_2190" data-name="Path 2190" d="M97,177.118,83.568,166.176c-5.142,2.731-8.784,1.325-10.525.214a1.962,1.962,0,0,1,.165-3.383l4.476-2.377c-.116-.017-.229-.032-.33-.042a86.606,86.606,0,0,1-12.206,1.051l-7.824,12.726,1.744,1.329,2.05-1.8a3.43,3.43,0,0,1,4.841.315h0l.03.034a3.4,3.4,0,0,1,.789,1.66,3.363,3.363,0,0,1,2.119-.578,3.407,3.407,0,0,1,2.355,1.16l.1.111a3.407,3.407,0,0,1,.844,2.484v0a3.455,3.455,0,0,1,.473-.016,3.408,3.408,0,0,1,2.355,1.16l-.616.591.641-.563a3.408,3.408,0,0,1,.846,2.485c0,.012,0,.022-.006.034a3.4,3.4,0,0,1,3.077,5.281l3.679,2.123a1.7,1.7,0,0,0,2.305-.611,1.672,1.672,0,0,0-.5-2.235l-5.859-4.06s-.007-.009-.012-.012l-.394-.273a.853.853,0,0,1,.971-1.4l8.263,5.724a1.679,1.679,0,0,0,2.337-.424h0a1.686,1.686,0,0,0-.413-2.324l-8.223-5.832s-.007-.009-.012-.012a.854.854,0,0,1,.99-1.391l9.218,6.54a1.787,1.787,0,0,0,2.127-2.872l-9.919-7.147a.853.853,0,0,1,.947-1.419l.043.031.678.484H85.2l9.193,6.624c.017.012.03.028.046.04l.152.109a.8.8,0,0,1,.082.065l.165.113a1.777,1.777,0,0,0,2.423-.335,1.75,1.75,0,0,0,.306-1.581,1.709,1.709,0,0,0-.572-.857Z" transform="translate(-50.675 -151.811)"/>
  <path id="Path_2191" data-name="Path 2191" d="M79.3,187.627a2.076,2.076,0,0,1-1.039-.278L74.2,185.006l.247-.363a3.005,3.005,0,0,0-2.316-4.66,2.042,2.042,0,0,0-.307.008l-.554.035.032-.469a3.014,3.014,0,0,0-.487-1.89l-.309.272-.558-.607.314-.3a3,3,0,0,0-1.794-.743,2.773,2.773,0,0,0-.361.012l-.443.033-.055-.489v-.017a3.013,3.013,0,0,0-.743-2.151l-.1-.111a2.988,2.988,0,0,0-3.933-.508l-.526.353-.111-.624a3.029,3.029,0,0,0-4.981-1.772l-2.3,2.023L52.6,171.276,60.74,158.04l.222-.007A86.488,86.488,0,0,0,73.1,156.99l.058-.012.059,0c.109.01.229.026.354.045l1.238.186-5.581,2.964a1.55,1.55,0,0,0-.135,2.675c1.638,1.045,5.133,2.408,10.107-.232l.242-.129,13.64,11.114a2.124,2.124,0,0,1,.7,1.067,2.157,2.157,0,0,1-.376,1.951,2.194,2.194,0,0,1-2.991.413l-.463-.346-9.856-7.1a.439.439,0,0,0-.613.1v0a.44.44,0,0,0,.1.614h0l9.921,7.153a2.2,2.2,0,0,1-2.607,3.542l-9.221-6.537a.441.441,0,1,0-.512.719l8.237,5.846a2.092,2.092,0,0,1-2.4,3.427h0l-8.261-5.725a.441.441,0,0,0-.525.708l.024.017,6.266,4.345a2.091,2.091,0,0,1-.635,3.744A2.158,2.158,0,0,1,79.3,187.627Zm-3.946-2.909,3.32,1.916a1.274,1.274,0,0,0,1.363-2.145l-4.683-3.25a3.817,3.817,0,0,1,.413,2A3.717,3.717,0,0,1,75.358,184.718Zm-.86-6.884a1.257,1.257,0,0,1,.718.224l8.261,5.724a1.266,1.266,0,0,0,1.452-2.075l-8.281-5.88a1.266,1.266,0,0,1,1.511-2.03l9.221,6.54a1.375,1.375,0,0,0,1.636-2.208l-9.908-7.14a1.265,1.265,0,0,1,1.472-2.059l.688.488,9.39,6.774a1.217,1.217,0,0,1,.12.1l.116.076a1.365,1.365,0,0,0,1.862-.247,1.34,1.34,0,0,0,.236-1.211,1.3,1.3,0,0,0-.43-.66l-13.22-10.772c-5.214,2.665-8.931,1.2-10.7.07a2.375,2.375,0,0,1,.2-4.1l2.53-1.343c-2.573.349-6.085.609-10.164.743L53.7,171.067l1.181.9,1.8-1.578a3.842,3.842,0,0,1,5.422.352h0a3.894,3.894,0,0,1,.774,1.339,3.72,3.72,0,0,1,1.88-.366,3.818,3.818,0,0,1,2.64,1.3l.1.111a3.81,3.81,0,0,1,.948,2.329h.082a3.817,3.817,0,0,1,2.376,1.037l.013-.012.224.256.024.026.26.3-.012.012a3.805,3.805,0,0,1,.727,2.084h.05a3.86,3.86,0,0,1,1.073.226,1.263,1.263,0,0,1,1.238-1.551Z" transform="translate(-46.502 -148.621)"/>
  <path id="Path_2192" data-name="Path 2192" d="M396.2,91.146l-8.652,6.7,8,13.019a.815.815,0,0,1,.148.1.838.838,0,0,1,.234.523l1.2,1.95,3.7-2.082Z" transform="translate(-342.598 -90.424)"/>
  <path id="Path_2193" data-name="Path 2193" d="M392.806,108.488l-1.456-2.37-.009-.1a.428.428,0,0,0-.116-.271l-.158-.094-.049-.082-8.2-13.331,9.46-7.324,4.845,21.141Zm-.66-2.645.946,1.537,3.089-1.733-4.417-19.283-7.851,6.08,7.756,12.616a.76.76,0,0,1,.141.109,1.229,1.229,0,0,1,.339.674Z" transform="translate(-338.421 -84.921)"/>
  <path id="Path_2194" data-name="Path 2194" d="M219.412,158.2a7.6,7.6,0,0,1-5.273.191l-4.542-1.475a2.475,2.475,0,0,0-1.893.165l-1.54.818c-.016.008-.031.018-.048.026l-6.1,3.241a.259.259,0,0,0-.147.224.234.234,0,0,0,.11.217c1.795,1.145,4.868,1.98,9.269-.545a.855.855,0,0,1,.964.078l13.869,11.3a3.292,3.292,0,0,1,.52.537l3.429-3.432-7.308-11.887Z" transform="translate(-176.688 -148.463)"/>
  <path id="Path_2195" data-name="Path 2195" d="M221.446,170.483l-.287-.364a2.837,2.837,0,0,0-.454-.47l-13.872-11.3a.445.445,0,0,0-.5-.04c-4.58,2.631-7.8,1.743-9.7.535a.645.645,0,0,1-.3-.586.668.668,0,0,1,.367-.569l7.686-4.082a2.888,2.888,0,0,1,2.213-.195l4.541,1.472a7.193,7.193,0,0,0,4.988-.18l1.636-.67,7.662,12.46Zm-14.895-13.061a1.271,1.271,0,0,1,.8.282l13.87,11.3a3.139,3.139,0,0,1,.278.253l2.888-2.888-6.954-11.314-.984.4a8.017,8.017,0,0,1-5.559.2l-4.538-1.474a2.063,2.063,0,0,0-1.574.14l-7.454,3.961c1.727,1,4.568,1.615,8.6-.7A1.264,1.264,0,0,1,206.551,157.422Z" transform="translate(-173.569 -145.347)"/>
</svg>
