<svg id="icon-telephone" xmlns="http://www.w3.org/2000/svg" width="32.393" height="32.516" viewBox="0 0 32.393 32.516">
  <path id="Path_11721" data-name="Path 11721" d="M7.476,21.614A34.5,34.5,0,0,0,18.95,30.6a17.858,17.858,0,0,0,6.421,1.9c.155.007.3.013.458.013a5.317,5.317,0,0,0,4.123-1.772.147.147,0,0,0,.027-.034,17.359,17.359,0,0,1,1.3-1.348c.317-.3.64-.62.95-.943a3.253,3.253,0,0,0-.013-4.844l-4.049-4.049A3.278,3.278,0,0,0,25.8,18.434a3.388,3.388,0,0,0-2.4,1.085l-2.412,2.412c-.222-.128-.451-.243-.667-.35a8.332,8.332,0,0,1-.741-.4,25.528,25.528,0,0,1-6.1-5.552,14.7,14.7,0,0,1-2.062-3.288c.633-.573,1.226-1.172,1.8-1.759.2-.209.411-.418.62-.627a3.454,3.454,0,0,0,1.118-2.426A3.427,3.427,0,0,0,13.836,5.1L11.828,3.093c-.236-.236-.458-.465-.687-.7-.445-.458-.91-.93-1.368-1.354A3.359,3.359,0,0,0,7.4,0,3.458,3.458,0,0,0,5,1.044l-2.52,2.52A5.177,5.177,0,0,0,.94,6.879a12.47,12.47,0,0,0,.937,5.39A31.358,31.358,0,0,0,7.476,21.614ZM2.584,7.021A3.564,3.564,0,0,1,3.656,4.73L6.162,2.223A1.814,1.814,0,0,1,7.4,1.651a1.722,1.722,0,0,1,1.213.586c.451.418.876.856,1.334,1.321.229.236.465.472.7.714l2.008,2.008a1.83,1.83,0,0,1,.633,1.26,1.83,1.83,0,0,1-.633,1.26c-.209.209-.418.424-.627.633-.627.633-1.213,1.233-1.86,1.806l-.034.034a1.317,1.317,0,0,0-.337,1.5c.007.02.013.034.02.054a15.857,15.857,0,0,0,2.365,3.847,26.943,26.943,0,0,0,6.5,5.916,9.645,9.645,0,0,0,.889.485,8.332,8.332,0,0,1,.741.4c.027.013.047.027.074.04a1.408,1.408,0,0,0,.654.168,1.429,1.429,0,0,0,1-.458l2.52-2.52a1.783,1.783,0,0,1,1.233-.6,1.692,1.692,0,0,1,1.193.6l4.063,4.056a1.625,1.625,0,0,1-.02,2.54c-.283.3-.579.593-.9.9a19.4,19.4,0,0,0-1.408,1.462,3.7,3.7,0,0,1-2.89,1.226c-.115,0-.236-.007-.35-.013a16.224,16.224,0,0,1-5.808-1.738A32.771,32.771,0,0,1,8.756,20.577a30.015,30.015,0,0,1-5.323-8.86A10.867,10.867,0,0,1,2.584,7.021Z" transform="translate(-0.912 0)" fill="#5a5858"/>
</svg>
