<svg xmlns="http://www.w3.org/2000/svg" width="28.029" height="20.757" viewBox="0 0 28.029 20.757">
  <g id="icon-coupon" transform="translate(-91.8 -134.4)">
    <g id="Group_18304" data-name="Group 18304" transform="translate(91.8 134.4)">
      <path id="Path_11784" data-name="Path 11784" d="M119.189,134.4H103.561a.639.639,0,0,0-.452.188l-2.373,2.373L98.4,134.622a.639.639,0,0,0-.452-.188H92.44a.645.645,0,0,0-.64.64v19.409a.645.645,0,0,0,.64.64h5.505a.639.639,0,0,0,.452-.188l2.339-2.339,2.373,2.373a.639.639,0,0,0,.452.188h15.628a.645.645,0,0,0,.64-.64V135.04A.639.639,0,0,0,119.189,134.4Zm-.64,19.477H103.826l-2.637-2.637a.644.644,0,0,0-.9,0l-2.6,2.6h-4.6V135.714h4.6l2.6,2.6a.644.644,0,0,0,.9,0l2.637-2.637h14.723Z" transform="translate(-91.8 -134.4)" fill="#fff"/>
      <path id="Path_11785" data-name="Path 11785" d="M251.29,183.98a2.39,2.39,0,1,0-2.39-2.39A2.4,2.4,0,0,0,251.29,183.98Zm0-3.5a1.11,1.11,0,1,1-1.11,1.11A1.107,1.107,0,0,1,251.29,180.48Z" transform="translate(-235.492 -175.376)" fill="#fff"/>
      <path id="Path_11786" data-name="Path 11786" d="M334.39,262.4a2.39,2.39,0,1,0,2.39,2.39A2.4,2.4,0,0,0,334.39,262.4Zm0,3.5a1.11,1.11,0,1,1,1.11-1.11A1.107,1.107,0,0,1,334.39,265.9Z" transform="translate(-311.499 -251.475)" fill="#fff"/>
      <path id="Path_11787" data-name="Path 11787" d="M254.542,195.568a.639.639,0,0,0,.9,0l9.653-9.653a.64.64,0,0,0-.9-.9l-9.653,9.653A.629.629,0,0,0,254.542,195.568Z" transform="translate(-240.476 -180.521)" fill="#fff"/>
      <path id="Path_11788" data-name="Path 11788" d="M189.64,202.5a.641.641,0,1,0,.452.188A.655.655,0,0,0,189.64,202.5Z" transform="translate(-180.704 -196.688)" fill="#fff"/>
      <path id="Path_11789" data-name="Path 11789" d="M189.64,233.2a.641.641,0,1,0,.452.188A.655.655,0,0,0,189.64,233.2Z" transform="translate(-180.704 -224.767)" fill="#fff"/>
      <path id="Path_11790" data-name="Path 11790" d="M189.64,263.8a.641.641,0,1,0,.452.188A.655.655,0,0,0,189.64,263.8Z" transform="translate(-180.704 -252.756)" fill="#fff"/>
      <path id="Path_11791" data-name="Path 11791" d="M189.64,294.5a.641.641,0,1,0,.452.188A.655.655,0,0,0,189.64,294.5Z" transform="translate(-180.704 -280.836)" fill="#fff"/>
    </g>
  </g>
</svg>
