<svg xmlns="http://www.w3.org/2000/svg" width="32.793" height="50.389" viewBox="0 0 32.793 50.389">
  <g id="icon-watch" transform="translate(-4 0)">
    <circle id="Ellipse_25" data-name="Ellipse 25" cx="15.396" cy="15.396" r="15.396" transform="translate(5 10.372)" fill="none" stroke="#babebc" stroke-linecap="round" stroke-linejoin="round" stroke-width="2"/>
    <path id="Path_149" data-name="Path 149" d="M12,9v6.6l3.3,3.3" transform="translate(8.396 9.596)" fill="none" stroke="#babebc" stroke-linecap="round" stroke-linejoin="round" stroke-width="2"/>
    <path id="Path_150" data-name="Path 150" d="M27.341,36.962l-.77,8.424a4.4,4.4,0,0,1-4.4,4H12.649a4.4,4.4,0,0,1-4.4-4l-.77-8.424M7.5,13.427,8.272,5a4.4,4.4,0,0,1,4.377-4h9.568a4.4,4.4,0,0,1,4.4,4l.77,8.424" transform="translate(2.975 0)" fill="none" stroke="#babebc" stroke-linecap="round" stroke-linejoin="round" stroke-width="2"/>
  </g>
</svg>
