<svg id="sex" xmlns="http://www.w3.org/2000/svg" width="35.551" height="35.551" viewBox="0 0 35.551 35.551">
  <path id="Path_11727" data-name="Path 11727" d="M18.817,9.443A9.409,9.409,0,1,0,8.4,18.76v6.306H5.277a1.042,1.042,0,1,0,0,2.083H8.4v3.125a1.042,1.042,0,1,0,2.083,0V27.149h3.125a1.042,1.042,0,1,0,0-2.083H10.485V18.759a9.387,9.387,0,0,0,8.332-9.316Zm-16.734,0a7.325,7.325,0,1,1,7.36,7.291A7.368,7.368,0,0,1,2.083,9.443Z" fill="#5a5858"/>
  <path id="Path_11728" data-name="Path 11728" d="M251.415,73.555v-9l2.388,2.388a1.042,1.042,0,0,0,1.473-1.473L251.11,61.3a1.041,1.041,0,0,0-1.473,0l-4.166,4.166a1.042,1.042,0,1,0,1.473,1.473l2.388-2.388v9a9.41,9.41,0,0,0,1.042,18.759,9.407,9.407,0,0,0,1.042-18.76Zm-1.042,16.677a7.325,7.325,0,1,1,7.36-7.36A7.334,7.334,0,0,1,250.374,90.232Z" transform="translate(-224.266 -56.764)" fill="#5a5858"/>
</svg>
