<svg xmlns="http://www.w3.org/2000/svg" width="57.228" height="53.403" viewBox="0 0 57.228 53.403">
  <path id="icon-abacus" d="M55.752,52.783H54.713V7.954a1.476,1.476,0,1,0-2.952,0V12.1H31.577v-.9a3.029,3.029,0,0,0-3.026-3.026h-.2a3.029,3.029,0,0,0-3.026,3.026v.9h-3.2v-.9A3.029,3.029,0,0,0,19.1,8.166h-.2a3.029,3.029,0,0,0-3.026,3.026v.9H14.747v-.9a3.029,3.029,0,0,0-3.026-3.026h-.2a3.029,3.029,0,0,0-3.026,3.026v.9H5.467V7.954a1.476,1.476,0,1,0-2.952,0V52.783H1.476A1.476,1.476,0,0,0,0,54.259v4.147a1.476,1.476,0,0,0,1.476,1.476H55.752a1.476,1.476,0,0,0,1.476-1.476V54.259A1.476,1.476,0,0,0,55.752,52.783ZM11.52,18.977h.2a3.029,3.029,0,0,0,3.026-3.026v-.9h1.129v.9A3.029,3.029,0,0,0,18.9,18.977h.2a3.029,3.029,0,0,0,3.026-3.026v-.9h3.2v.9a3.029,3.029,0,0,0,3.026,3.026h.2a3.029,3.029,0,0,0,3.026-3.026v-.9H51.761v9.344H48.414v-.9a3.029,3.029,0,0,0-3.026-3.026h-.2a3.029,3.029,0,0,0-3.026,3.026v.9H39.489v-.9a3.029,3.029,0,0,0-3.026-3.026h-.2a3.029,3.029,0,0,0-3.026,3.026v.9H5.467V15.047H8.495v.9A3.029,3.029,0,0,0,11.52,18.977ZM36.463,34.53h-.2a3.029,3.029,0,0,0-3.026,3.026v.9h-5.5v-.9a3.029,3.029,0,0,0-3.026-3.026h-.2a3.029,3.029,0,0,0-3.026,3.026v.9H20.358v-.9a3.029,3.029,0,0,0-3.026-3.026h-.2a3.029,3.029,0,0,0-3.026,3.026v.9h-.834v-.9a3.029,3.029,0,0,0-3.026-3.026h-.2a3.029,3.029,0,0,0-3.026,3.026v.9H5.466V27.344h27.77v.9a3.029,3.029,0,0,0,3.026,3.026h.2a3.029,3.029,0,0,0,3.026-3.026v-.9h2.673v.9a3.029,3.029,0,0,0,3.026,3.026h.2a3.029,3.029,0,0,0,3.026-3.026v-.9h3.347V38.459H39.489v-.9A3.029,3.029,0,0,0,36.463,34.53Zm-31,6.881H7.019v.9a3.029,3.029,0,0,0,3.026,3.026h.2a3.029,3.029,0,0,0,3.026-3.026v-.9h.834v.9a3.029,3.029,0,0,0,3.026,3.026h.2a3.029,3.029,0,0,0,3.026-3.026v-.9h1.129v.9a3.029,3.029,0,0,0,3.026,3.026h.2a3.029,3.029,0,0,0,3.026-3.026v-.9h5.5v.9a3.029,3.029,0,0,0,3.026,3.026h.2a3.029,3.029,0,0,0,3.026-3.026v-.9H51.761V52.783H5.467Z" transform="translate(0 -6.478)"/>
</svg>
