<svg xmlns="http://www.w3.org/2000/svg" width="48" height="48" viewBox="0 0 48 48">
  <g id="icon-globe" transform="translate(-1.999 -2.043)">
    <g id="Group_18050" data-name="Group 18050" transform="translate(1.999 2.043)">
      <path id="Path_11758" data-name="Path 11758" d="M22.074,10.753A59.011,59.011,0,0,1,8.629,9.2.828.828,0,1,1,9.008,7.59a57.639,57.639,0,0,0,29.26-.824.827.827,0,1,1,.468,1.587A59.029,59.029,0,0,1,22.074,10.753Z" transform="translate(1.926 1.03)"/>
      <path id="Path_11759" data-name="Path 11759" d="M39.756,27.95a.834.834,0,0,1-.235-.035,57.606,57.606,0,0,0-32.385,0,.827.827,0,0,1-.468-1.587,59.252,59.252,0,0,1,33.324,0,.828.828,0,0,1-.235,1.622Z" transform="translate(0.671 12.302)"/>
      <path id="Path_11760" data-name="Path 11760" d="M20.956,47.831a.824.824,0,0,1-.467-.144A28.1,28.1,0,0,1,8.153,24.5a27.793,27.793,0,0,1,8.3-19.859.827.827,0,0,1,1.167,1.174A26.155,26.155,0,0,0,9.808,24.5,26.441,26.441,0,0,0,21.424,46.32a.828.828,0,0,1-.468,1.511Z" transform="translate(2.033 -0.499)"/>
      <path id="Path_11761" data-name="Path 11761" d="M17.48,49.109a.828.828,0,0,1-.467-1.511,26.3,26.3,0,0,0,0-43.64.828.828,0,0,1,.934-1.367,27.96,27.96,0,0,1,0,46.375A.833.833,0,0,1,17.48,49.109Z" transform="translate(7.602 -1.778)"/>
      <g id="Group_18048" data-name="Group 18048" transform="translate(23.172 0.915)">
        <path id="Path_11762" data-name="Path 11762" d="M16.827,48.765A.828.828,0,0,1,16,47.938V3.424a.828.828,0,1,1,1.655,0V47.938A.827.827,0,0,1,16.827,48.765Z" transform="translate(-15.999 -2.596)"/>
      </g>
      <g id="Group_18049" data-name="Group 18049" transform="translate(3.398 23.172)">
        <path id="Path_11763" data-name="Path 11763" d="M47.739,17.7H4.88a.828.828,0,1,1,0-1.655H47.74a.828.828,0,1,1,0,1.655Z" transform="translate(-4.052 -16.043)"/>
      </g>
      <path id="Path_11764" data-name="Path 11764" d="M26,50.043A24,24,0,0,1,7.958,10.211.828.828,0,0,1,9.2,11.3,22.347,22.347,0,1,0,26,3.7,22.094,22.094,0,0,0,12.13,8.523a.827.827,0,1,1-1.028-1.3A23.723,23.723,0,0,1,26,2.043a24,24,0,1,1,0,48Z" transform="translate(-1.999 -2.043)"/>
    </g>
  </g>
</svg>
