<svg id="icon-gear" xmlns="http://www.w3.org/2000/svg" width="17.447" height="17.447" viewBox="0 0 17.447 17.447">
  <g id="Group_39" data-name="Group 39">
    <g id="Group_37" data-name="Group 37">
      <path id="Path_130" data-name="Path 130" d="M9.451,17.447H8a1.092,1.092,0,0,1-1.09-1.09V15a6.489,6.489,0,0,1-1.338-.555l-.957.958a1.117,1.117,0,0,1-1.542,0L2.04,14.378a1.09,1.09,0,0,1,0-1.542L3,11.878a6.448,6.448,0,0,1-.554-1.337H1.09A1.092,1.092,0,0,1,0,9.45V8a1.09,1.09,0,0,1,1.09-1.09H2.444A6.49,6.49,0,0,1,3,5.569l-.957-.958a1.091,1.091,0,0,1,0-1.542L3.069,2.041a1.117,1.117,0,0,1,1.542,0L5.569,3a6.486,6.486,0,0,1,1.337-.554V1.09A1.092,1.092,0,0,1,8,0H9.451a1.092,1.092,0,0,1,1.09,1.09V2.444A6.493,6.493,0,0,1,11.878,3l.958-.958a1.117,1.117,0,0,1,1.542,0l1.028,1.028a1.09,1.09,0,0,1,0,1.542l-.957.958A6.457,6.457,0,0,1,15,6.906h1.353A1.092,1.092,0,0,1,17.447,8V9.45a1.09,1.09,0,0,1-1.09,1.09H15a6.488,6.488,0,0,1-.555,1.338l.957.958a1.091,1.091,0,0,1,0,1.542l-1.028,1.028a1.117,1.117,0,0,1-1.542,0l-.957-.958A6.49,6.49,0,0,1,10.542,15v1.354A1.092,1.092,0,0,1,9.451,17.447ZM5.509,13.63a.364.364,0,0,1,.189.053,5.771,5.771,0,0,0,1.656.687.364.364,0,0,1,.278.353v1.633A.364.364,0,0,0,8,16.721H9.451a.364.364,0,0,0,.363-.363V14.724a.364.364,0,0,1,.278-.353,5.771,5.771,0,0,0,1.656-.687.364.364,0,0,1,.447.053l1.155,1.156a.375.375,0,0,0,.514,0l1.028-1.028a.364.364,0,0,0,0-.514l-1.156-1.156a.363.363,0,0,1-.053-.447,5.765,5.765,0,0,0,.687-1.656.364.364,0,0,1,.353-.278h1.633a.362.362,0,0,0,.257-.107.358.358,0,0,0,.106-.256V8a.364.364,0,0,0-.363-.363H14.724a.363.363,0,0,1-.353-.278A5.761,5.761,0,0,0,13.684,5.7a.364.364,0,0,1,.053-.447L14.893,4.1a.363.363,0,0,0,0-.514L13.864,2.554a.373.373,0,0,0-.514,0L12.194,3.71a.362.362,0,0,1-.447.053,5.767,5.767,0,0,0-1.655-.687.362.362,0,0,1-.278-.353V1.09A.364.364,0,0,0,9.451.727H8a.364.364,0,0,0-.363.363V2.724a.364.364,0,0,1-.278.353A5.77,5.77,0,0,0,5.7,3.764a.363.363,0,0,1-.446-.053L4.1,2.555a.373.373,0,0,0-.514,0L2.555,3.583a.364.364,0,0,0,0,.514L3.711,5.252a.363.363,0,0,1,.053.447,5.763,5.763,0,0,0-.687,1.656.364.364,0,0,1-.353.278H1.09A.363.363,0,0,0,.727,8V9.45a.364.364,0,0,0,.363.363H2.724a.363.363,0,0,1,.353.278,5.767,5.767,0,0,0,.687,1.656.364.364,0,0,1-.053.447L2.555,13.351a.363.363,0,0,0,0,.514l1.028,1.028a.373.373,0,0,0,.514,0l1.155-1.156A.36.36,0,0,1,5.509,13.63Z" fill="#fff"/>
    </g>
    <g id="Group_38" data-name="Group 38" transform="translate(5.089 5.089)">
      <path id="Path_131" data-name="Path 131" d="M17.635,21.27a3.635,3.635,0,1,1,3.635-3.635A3.639,3.639,0,0,1,17.635,21.27Zm0-6.543a2.908,2.908,0,1,0,2.908,2.908A2.911,2.911,0,0,0,17.635,14.727Z" transform="translate(-14 -14)" fill="#fff"/>
    </g>
  </g>
</svg>
