<svg xmlns="http://www.w3.org/2000/svg" width="26.628" height="23.669" viewBox="0 0 26.628 23.669">
  <path id="icon-packages" d="M25.888,13.314h-3.7v4.438l-1.479-.985-1.479.985V13.314h-3.7a.742.742,0,0,0-.74.74V22.93a.742.742,0,0,0,.74.74H25.888a.742.742,0,0,0,.74-.74V14.054A.742.742,0,0,0,25.888,13.314ZM8.136,10.355H18.492a.742.742,0,0,0,.74-.74V.74a.742.742,0,0,0-.74-.74h-3.7V4.438l-1.479-.985-1.479.985V0h-3.7A.742.742,0,0,0,7.4.74V9.616A.742.742,0,0,0,8.136,10.355Zm2.959,2.959H7.4v4.438l-1.479-.985-1.479.985V13.314H.74a.742.742,0,0,0-.74.74V22.93a.742.742,0,0,0,.74.74H11.095a.742.742,0,0,0,.74-.74V14.054A.742.742,0,0,0,11.095,13.314Z" fill="#fff"/>
</svg>
