<svg id="icon-laptop" xmlns="http://www.w3.org/2000/svg" width="66.606" height="45.633" viewBox="0 0 66.606 45.633">
  <path id="Path_2197" data-name="Path 2197" d="M60.437,47.974V15.9a2.474,2.474,0,0,0-2.466-2.466H8.635A2.473,2.473,0,0,0,6.166,15.9V47.974L0,55.374a3.7,3.7,0,0,0,3.7,3.7H62.906a3.7,3.7,0,0,0,3.7-3.7Zm-22.2,9.869H28.371a.617.617,0,0,1,0-1.234h9.87a.618.618,0,0,1,.617.617A.624.624,0,0,1,38.24,57.843ZM23.135,55.377l1.882-2.259H41.586l1.885,2.259ZM56.965,43.611a2.155,2.155,0,0,1-2.151,2.153H11.791A2.161,2.161,0,0,1,9.64,43.611v-25.8a2.155,2.155,0,0,1,2.151-2.153H54.816a2.159,2.159,0,0,1,2.151,2.153S56.965,43.611,56.965,43.611Z" transform="translate(0 -13.439)" fill="#fff"/>
</svg>
