<svg id="icon-machine" xmlns="http://www.w3.org/2000/svg" width="23.197" height="23.866" viewBox="0 0 23.197 23.866">
  <path id="Path_584" data-name="Path 584" d="M24.821,3.182H20.183v-.9A2.38,2.38,0,0,0,17.72,0H5.463A2.38,2.38,0,0,0,3,2.28v19.3a2.38,2.38,0,0,0,2.463,2.281H17.72a2.38,2.38,0,0,0,2.463-2.28V16.706h4.638A1.33,1.33,0,0,0,26.2,15.432V4.456A1.33,1.33,0,0,0,24.821,3.182Zm-5.5,18.4a1.55,1.55,0,0,1-1.6,1.485H5.463a1.55,1.55,0,0,1-1.6-1.485V2.28A1.55,1.55,0,0,1,5.463.8H17.72a1.55,1.55,0,0,1,1.6,1.485V21.586Zm.859-5.675V3.978h.859V15.911Zm1.718,0V3.978h.859V15.911Zm3.437-.479a.5.5,0,0,1-.517.479h-1.2V3.978h1.2a.5.5,0,0,1,.517.479Z" transform="translate(-3)" fill="#a0a0a0"/>
  <ellipse id="Ellipse_23" data-name="Ellipse 23" cx="0.5" rx="0.5" transform="translate(21 6)" fill="#a0a0a0"/>
  <circle id="Ellipse_24" data-name="Ellipse 24" cx="0.5" cy="0.5" r="0.5" transform="translate(21 7)" fill="#a0a0a0"/>
  <path id="Path_585" data-name="Path 585" d="M8,13.58H18.57V9H8ZM8.7,9.7h9.161v3.171H8.7Z" transform="translate(-6.238 -5.829)" fill="#a0a0a0"/>
  <path id="Path_586" data-name="Path 586" d="M9.466,5.7a.352.352,0,0,0,0-.7H7.352a.352.352,0,0,0,0,.7Z" transform="translate(-5.591 -3.238)" fill="#a0a0a0"/>
  <path id="Path_587" data-name="Path 587" d="M9,26.466h2.819V24H9ZM9.7,24.7h1.409v1.057H9.7Z" transform="translate(-6.886 -14.31)" fill="#a0a0a0"/>
  <path id="Path_588" data-name="Path 588" d="M19,26.466h2.819V24H19Zm.7-1.762h1.409v1.057H19.7Z" transform="translate(-11.912 -14.31)" fill="#a0a0a0"/>
  <path id="Path_589" data-name="Path 589" d="M29,26.466h2.819V24H29Zm.7-1.762h1.409v1.057H29.7Z" transform="translate(-17.482 -14.31)" fill="#a0a0a0"/>
  <path id="Path_590" data-name="Path 590" d="M9,34.466h2.819V32H9ZM9.7,32.7h1.409v1.057H9.7Z" transform="translate(-6.886 -19.079)" fill="#a0a0a0"/>
  <path id="Path_591" data-name="Path 591" d="M19,34.466h2.819V32H19Zm.7-1.762h1.409v1.057H19.7Z" transform="translate(-11.912 -19.079)" fill="#a0a0a0"/>
  <path id="Path_592" data-name="Path 592" d="M29,34.466h2.819V32H29Zm.7-1.762h1.409v1.057H29.7Z" transform="translate(-17.482 -19.079)" fill="#a0a0a0"/>
  <path id="Path_593" data-name="Path 593" d="M9,42.466h2.819V40H9ZM9.7,40.7h1.409v1.057H9.7Z" transform="translate(-6.886 -23.849)" fill="#a0a0a0"/>
  <path id="Path_594" data-name="Path 594" d="M19,42.466h2.819V40H19Zm.7-1.762h1.409v1.057H19.7Z" transform="translate(-11.912 -23.849)" fill="#a0a0a0"/>
  <path id="Path_595" data-name="Path 595" d="M9,51.466h2.819V49H9ZM9.7,49.7h1.409v1.057H9.7Z" transform="translate(-6.886 -29.01)" fill="#a0a0a0"/>
  <path id="Path_596" data-name="Path 596" d="M19,51.466h2.819V49H19Zm.7-1.762h1.409v1.057H19.7Z" transform="translate(-11.912 -29.01)" fill="#a0a0a0"/>
  <path id="Path_597" data-name="Path 597" d="M29,45.637h2.819V40H29Zm.7-4.933h1.409v4.228H29.7Z" transform="translate(-17.482 -23.181)" fill="#a0a0a0"/>
  <path id="Path_598" data-name="Path 598" d="M18.839,12.028a.353.353,0,0,0-.384.076l-.352.352a.352.352,0,0,0,.249.6v1.057a.352.352,0,1,0,.7,0V12.353a.356.356,0,0,0-.027-.135A.351.351,0,0,0,18.839,12.028Z" transform="translate(-12.094 -7.536)" fill="#a0a0a0"/>
  <path id="Path_599" data-name="Path 599" d="M27.839,12.028a.353.353,0,0,0-.384.076l-.352.352a.352.352,0,0,0,.249.6v1.057a.352.352,0,1,0,.7,0V12.353a.356.356,0,0,0-.027-.135A.351.351,0,0,0,27.839,12.028Z" transform="translate(-18.502 -7.536)" fill="#a0a0a0"/>
  <path id="Path_600" data-name="Path 600" d="M31.839,12.028a.353.353,0,0,0-.384.076l-.352.352a.352.352,0,0,0,.249.6v1.057a.352.352,0,1,0,.7,0V12.353a.356.356,0,0,0-.027-.135A.351.351,0,0,0,31.839,12.028Z" transform="translate(-21.093 -7.536)" fill="#a0a0a0"/>
  <path id="Path_601" data-name="Path 601" d="M23.455,16.1l-.352.352a.352.352,0,1,0,.5.5l.352-.352a.352.352,0,1,0-.5-.5Z" transform="translate(-15.559 -10.126)" fill="#a0a0a0"/>
</svg>
