<svg xmlns="http://www.w3.org/2000/svg" width="13.928" height="13.929" viewBox="0 0 13.928 13.929">
  <g id="icon-warning-2" transform="translate(-0.009 -0.013)">
    <path id="Path_580" data-name="Path 580" d="M6.973,13.942a1.108,1.108,0,0,1-.786-.326h0L.335,7.763a1.111,1.111,0,0,1,0-1.572L6.188.338a1.112,1.112,0,0,1,1.572,0l5.853,5.853a1.111,1.111,0,0,1,0,1.572L7.759,13.616A1.108,1.108,0,0,1,6.973,13.942ZM6.5,13.309a.675.675,0,0,0,.956,0l5.854-5.854a.675.675,0,0,0,0-.956L7.451.645a.675.675,0,0,0-.956,0L.642,6.5a.675.675,0,0,0,0,.956Z"/>
    <path id="Path_581" data-name="Path 581" d="M55.322,35.659a.9.9,0,0,1-.9-.861l-.161-3.862a.9.9,0,0,1,.9-.936h.326a.9.9,0,0,1,.9.936L56.22,34.8A.9.9,0,0,1,55.322,35.659Zm-.161-5.224a.463.463,0,0,0-.463.482l.161,3.862a.463.463,0,1,0,.925,0l.161-3.862a.463.463,0,0,0-.463-.482Z" transform="translate(-48.349 -26.723)"/>
    <path id="Path_582" data-name="Path 582" d="M56.871,87.741a.871.871,0,1,1,.871-.871A.871.871,0,0,1,56.871,87.741Zm0-1.306a.435.435,0,1,0,.435.435A.435.435,0,0,0,56.871,86.435Z" transform="translate(-49.897 -76.629)"/>
  </g>
</svg>
