<svg xmlns="http://www.w3.org/2000/svg" width="80.453" height="80.877" viewBox="0 0 80.453 80.877">
  <path id="icon0love-favorite" d="M54.742,0H7.82A7.818,7.818,0,0,0,0,7.82v39.1a7.818,7.818,0,0,0,7.82,7.82H23.133l8.149,7.82,7.82-7.82H54.742a7.818,7.818,0,0,0,7.82-7.82V7.82A7.818,7.818,0,0,0,54.742,0ZM44.7,29.088l-2.682,2.784L31.281,43.012,20.548,31.872l-2.682-2.784a8.09,8.09,0,0,1,0-11.14,7.394,7.394,0,0,1,10.733,0l2.682,2.784,2.682-2.784a7.394,7.394,0,0,1,10.733,0A8.082,8.082,0,0,1,44.7,29.088Z" transform="matrix(0.966, -0.259, 0.259, 0.966, 1.837, 18.03)" fill="none" stroke="#bfae7a" stroke-width="3"/>
</svg>
