<svg id="icon-warning" xmlns="http://www.w3.org/2000/svg" width="19.657" height="17.489" viewBox="0 0 19.657 17.489">
  <g id="Group_11" data-name="Group 11">
    <path id="Path_97" data-name="Path 97" d="M12,5.511a1.876,1.876,0,0,1,1.544,1.062l5.912,9.854C20.307,17.842,19.65,19,18,19H6c-1.65,0-2.307-1.159-1.456-2.573l5.912-9.854A1.876,1.876,0,0,1,12,5.511m0-2A3.837,3.837,0,0,0,8.741,5.542L2.829,15.4a3.739,3.739,0,0,0-.235,3.83A3.744,3.744,0,0,0,6,21H18a3.742,3.742,0,0,0,3.406-1.771,3.741,3.741,0,0,0-.235-3.83L15.259,5.545A3.834,3.834,0,0,0,12,3.511Z" transform="translate(-2.171 -3.511)" fill="#707070"/>
  </g>
  <g id="Group_12" data-name="Group 12" transform="translate(8.529 11.189)">
    <circle id="Ellipse_7" data-name="Ellipse 7" cx="1.3" cy="1.3" r="1.3" fill="#707070"/>
  </g>
  <g id="Group_13" data-name="Group 13" transform="translate(8.329 4.989)">
    <path id="Path_98" data-name="Path 98" d="M13.5,10a1.5,1.5,0,1,0-2.889.562C11.165,11.938,12,14,12,14s.835-2.062,1.391-3.438A1.536,1.536,0,0,0,13.5,10Z" transform="translate(-10.5 -8.5)" fill="#707070"/>
  </g>
</svg>
