<svg id="icon-clients" xmlns="http://www.w3.org/2000/svg" width="25.829" height="28.566" viewBox="0 0 25.829 28.566">
  <path id="Path_2094" data-name="Path 2094" d="M28.56,67.7a2.137,2.137,0,0,0-2.83-.084V60.736a.418.418,0,1,0-.837,0V68.2a22.806,22.806,0,0,1-2.853,1.957V57.775a1.045,1.045,0,0,1,1.044-1.044h.765a1.045,1.045,0,0,1,1.044,1.044v1.248a.418.418,0,1,0,.837,0V57.775a1.883,1.883,0,0,0-1.881-1.881h-.765A1.883,1.883,0,0,0,21.2,57.775V70.493a4.4,4.4,0,0,1-.766.143V61.814a1.892,1.892,0,0,0-1.89-1.89H17.8a1.892,1.892,0,0,0-1.89,1.89v4.263l-.766.407V65.065a1.7,1.7,0,0,0-1.7-1.7H12.321a1.7,1.7,0,0,0-1.7,1.7v3.821l-1.366.725-3.837,1.1a2.644,2.644,0,0,0-1.833,3.208l.429,1.651a.418.418,0,1,0,.81-.211l-.429-1.651a1.8,1.8,0,0,1,1.253-2.193l3.508-1,2.636,7.036a1.874,1.874,0,0,1-1.246,2.311l-2.651.6A1.735,1.735,0,0,1,5.821,79.2l-.538-2.071a.418.418,0,1,0-.81.211l.538,2.071A2.566,2.566,0,0,0,7.5,81.341a20.513,20.513,0,0,0,3.232-.668,2.578,2.578,0,0,0,1.952-3.047l9.171-2.245a5.277,5.277,0,0,0,2.082-1.042L28.4,70.672A1.985,1.985,0,0,0,28.56,67.7ZM17.8,60.761h.746A1.055,1.055,0,0,1,19.6,61.814v8.842H16.96c-.243,0-.075-.162-.061-.173l.76-.616a3.977,3.977,0,0,0,1.377-2.375,1.659,1.659,0,0,0-2.288-1.852V61.814A1.055,1.055,0,0,1,17.8,60.76Zm-6.346,4.3a.866.866,0,0,1,.865-.865h1.123a.866.866,0,0,1,.865.865v1.863l-2.853,1.514V65.065Zm16.411,4.96L23.4,73.692a4.43,4.43,0,0,1-1.749.875L12.415,76.83,9.931,70.2l7.094-3.766a.822.822,0,0,1,1.191.89,3.164,3.164,0,0,1-1.084,1.892l-.76.616a.934.934,0,0,0,.588,1.66h3.051a5.217,5.217,0,0,0,3.016-.954l3.407-2.4a1.178,1.178,0,0,1,1.527.141,1.161,1.161,0,0,1-.095,1.741Zm0,0" transform="translate(-3.33 -52.776)" fill="#fff"/>
  <path id="Path_2095" data-name="Path 2095" d="M67.617,420.887a1.649,1.649,0,1,0-1.649,1.648A1.65,1.65,0,0,0,67.617,420.887Zm-2.46,0a.812.812,0,1,1,.812.812A.813.813,0,0,1,65.157,420.887Zm0,0" transform="translate(-60.759 -395.848)" fill="#fff"/>
  <path id="Path_2096" data-name="Path 2096" d="M2.7,13.138l6.083-6.13,1.368.708A1.287,1.287,0,0,0,11.634,7.5l3.311-3.187S14.854,5.95,16.232,5.95a1.289,1.289,0,0,0,1.287-1.287V1.287s0-.008,0-.012A1.218,1.218,0,0,0,16.232,0H12.886A1.289,1.289,0,0,0,11.6,1.287a1.269,1.269,0,0,0,1.44,1.287L10.513,5.005,9.125,4.288a1.282,1.282,0,0,0-1.505.236l-6.748,6.8a1.289,1.289,0,0,0,.007,1.82,1.269,1.269,0,0,0,1.82-.007ZM1.465,11.914l6.748-6.8a.381.381,0,0,1,.527-.083l1.654.856a.418.418,0,0,0,.483-.07l3.49-3.359a.418.418,0,0,0-.29-.72H12.886a.45.45,0,0,1,0-.9h3.346a.393.393,0,0,1,.45.448s0,.007,0,.011V4.662a.45.45,0,0,1-.9,0V3.329a.418.418,0,0,0-.709-.3L11.053,6.9a.45.45,0,0,1-.519.076L8.893,6.124A.419.419,0,0,0,8.4,6.2L2.1,12.548a.432.432,0,0,1-.637,0,.451.451,0,0,1,0-.637Zm0,0" transform="translate(-0.499 0)" fill="#fff"/>
</svg>
