<svg id="icon-eye" xmlns="http://www.w3.org/2000/svg" width="68" height="43.774" viewBox="0 0 68 43.774">
  <g id="Group_3932" data-name="Group 3932" transform="translate(23.057 10.943)">
    <g id="Group_3931" data-name="Group 3931">
      <path id="Path_2198" data-name="Path 2198" d="M167.359,156.416A10.943,10.943,0,1,0,178.3,167.359,10.951,10.951,0,0,0,167.359,156.416Zm-.83,7.7a2.513,2.513,0,0,0-2.491,2.491h-3.623a6.185,6.185,0,0,1,6.113-6.113Z" transform="translate(-156.416 -156.416)" fill="#fff"/>
    </g>
  </g>
  <g id="Group_3934" data-name="Group 3934" transform="translate(0 0)">
    <g id="Group_3933" data-name="Group 3933">
      <path id="Path_2199" data-name="Path 2199" d="M67.208,101.8C63.509,97.195,50.3,82.176,34,82.176S4.491,97.195.792,101.8a3.63,3.63,0,0,0,0,4.528C4.491,110.931,17.7,125.95,34,125.95s29.509-15.019,33.208-19.623A3.63,3.63,0,0,0,67.208,101.8ZM34,119.912a15.849,15.849,0,1,1,15.849-15.849A15.847,15.847,0,0,1,34,119.912Z" transform="translate(0 -82.176)" fill="#fff"/>
    </g>
  </g>
</svg>
