<svg xmlns="http://www.w3.org/2000/svg" width="24.687" height="22.313" viewBox="0 0 24.687 22.313">
  <g id="icon-product" transform="translate(0.125 0.125)">
    <path id="Path_2084" data-name="Path 2084" d="M21.86,0H6.058A2.478,2.478,0,0,0,3.571,2.459l-.1,13.914H.385A.4.4,0,0,0,0,16.786V18.7A3.355,3.355,0,0,0,3.165,22.04v.023H16.472v-.026c.1,0,.159.026.227.026h.009A3.345,3.345,0,0,0,20.034,18.7V6.53h4.017a.405.405,0,0,0,.385-.416V2.6A2.6,2.6,0,0,0,21.86,0ZM3.338,21.271h0A2.565,2.565,0,0,1,.791,18.7V17.165H13.356v1.528a3.349,3.349,0,0,0,.978,2.377,1.421,1.421,0,0,1,.208.2Zm15.9-2.571a2.555,2.555,0,0,1-2.534,2.571H16.7a2.571,2.571,0,0,1-2.553-2.577V16.786a.41.41,0,0,0-.4-.412H4.26l.1-13.912A1.686,1.686,0,0,1,6.058.791H19.991a2.7,2.7,0,0,0-.749,1.819Zm4.4-16.093V5.738H20.034V2.61A1.833,1.833,0,0,1,21.848.792h.011A1.8,1.8,0,0,1,23.645,2.6Zm0,0" transform="translate(0.001)" fill="#fff" stroke="#fff" stroke-width="0.25"/>
    <path id="Path_2085" data-name="Path 2085" d="M164.226,60.665l2.04,1.395a.39.39,0,0,0,.442,0l2.034-1.395a3.074,3.074,0,0,0,1.229-2.345V55.5a.387.387,0,0,0-.211-.355l-3.107-1.528a.389.389,0,0,0-.346,0l-3.1,1.524a.386.386,0,0,0-.211.355v2.827A3.074,3.074,0,0,0,164.226,60.665Zm-.438-4.924,2.7-1.33,2.7,1.334v2.576a2.28,2.28,0,0,1-.884,1.69l-1.817,1.243-1.81-1.242a2.279,2.279,0,0,1-.882-1.691Zm0,0" transform="translate(-154.933 -50.924)" fill="#fff" stroke="#fff" stroke-width="0.25"/>
    <path id="Path_2086" data-name="Path 2086" d="M202.453,118.379a.4.4,0,0,0,.28.119h0a.4.4,0,0,0,.28-.117l1.574-1.575a.4.4,0,0,0-.56-.56l-1.293,1.293-.517-.522a.4.4,0,0,0-.563.557Zm0,0" transform="translate(-191.571 -110.385)" fill="#fff" stroke="#fff" stroke-width="0.25"/>
    <path id="Path_2087" data-name="Path 2087" d="M142.894,248h-9.5a.4.4,0,0,0,0,.792h9.5a.4.4,0,0,0,0-.792Zm0,0" transform="translate(-126.421 -235.732)" fill="#fff" stroke="#fff" stroke-width="0.25"/>
    <path id="Path_2088" data-name="Path 2088" d="M142.894,285h-9.5a.4.4,0,1,0,0,.791h9.5a.4.4,0,1,0,0-.791Zm0,0" transform="translate(-126.421 -270.902)" fill="#fff" stroke="#fff" stroke-width="0.25"/>
  </g>
</svg>
