<svg id="icon-smartphone" xmlns="http://www.w3.org/2000/svg" width="32.035" height="58.408" viewBox="0 0 32.035 58.408">
  <g id="Group_3930" data-name="Group 3930" transform="translate(0)">
    <path id="Path_2196" data-name="Path 2196" d="M139.628,0H119.9a6.2,6.2,0,0,0-6.2,6.089V52.326a6.142,6.142,0,0,0,6.145,6.082l19.764-.021a6.1,6.1,0,0,0,6.1-6.083l.029-46.218A6.09,6.09,0,0,0,139.628,0ZM126.912,3.651h5.725a.913.913,0,0,1,0,1.825h-5.725a.913.913,0,0,1,0-1.825Zm-3.44.29a.945.945,0,0,1,1.292,0A.915.915,0,0,1,124.12,5.5a.934.934,0,0,1-.648-.269.921.921,0,0,1,0-1.292ZM129.59,56.6a2.731,2.731,0,1,1,2.731-2.731A2.734,2.734,0,0,1,129.59,56.6Zm13.3-7.318H116.886V8.67h26.009Z" transform="translate(-113.692)" fill="#fff"/>
  </g>
</svg>
