<svg xmlns="http://www.w3.org/2000/svg" width="27.721" height="24.038" viewBox="0 0 27.721 24.038">
  <path id="icon-3d-design" d="M35.721,51.678a.447.447,0,0,0-.295-.42l-6.412-2.332V41.458H29a.443.443,0,0,0-.277-.54L22.013,38.48a.441.441,0,0,0-.305,0L15,40.918a.448.448,0,0,0-.283.323h-.012v7.685L8.295,51.258a.448.448,0,0,0-.283.323H8v7.926h.011a.446.446,0,0,0,.283.518L15,62.463a.439.439,0,0,0,.305,0l6.554-2.383,6.554,2.383a.439.439,0,0,0,.305,0l6.707-2.438a.446.446,0,0,0,.278-.3h.017V51.8S35.721,51.719,35.721,51.678ZM14.707,61.4,8.894,59.292V52.316l5.813,2.114Zm.447-7.764-5.4-1.963,5.363-1.951,5.4,1.963Zm6.26,5.65L15.6,61.4V54.43l5.813-2.114Zm0-8.252L15.6,48.926V41.977l5.813,2.114Zm-4.951-9.7,5.4-1.963,5.4,1.963-5.4,1.963Zm11.658.638v6.949L22.308,51.04V44.091Zm0,19.428-5.813-2.113V52.316L28.12,54.43Zm.447-7.764L23.2,51.691l5.4-1.963,5.363,1.951Zm6.26,5.65L29.015,61.4V54.43l5.813-2.114Z" transform="translate(-8 -38.453)" fill="#fff"/>
</svg>
