<svg xmlns="http://www.w3.org/2000/svg" width="79.52" height="55.664" viewBox="0 0 79.52 55.664">
  <path id="money-check-solid" d="M0,83.688a3.976,3.976,0,0,0,3.976,3.976H75.544a3.976,3.976,0,0,0,3.976-3.976V43.928H0ZM55.664,57.844a1.987,1.987,0,0,1,1.988-1.988H69.58a1.987,1.987,0,0,1,1.988,1.988V61.82a1.987,1.987,0,0,1-1.988,1.988H57.652a1.987,1.987,0,0,1-1.988-1.988Zm0,14.91a.994.994,0,0,1,.994-.994H70.574a.994.994,0,0,1,.994.994v1.988a.994.994,0,0,1-.994.994H56.658a.994.994,0,0,1-.994-.994ZM7.952,60.826a.994.994,0,0,1,.994-.994H46.718a.994.994,0,0,1,.994.994v1.988a.994.994,0,0,1-.994.994H8.946a.994.994,0,0,1-.994-.994Zm0,11.928a.994.994,0,0,1,.994-.994H30.814a.994.994,0,0,1,.994.994v1.988a.994.994,0,0,1-.994.994H8.946a.994.994,0,0,1-.994-.994ZM77.532,32H1.988A1.987,1.987,0,0,0,0,33.988v5.964H79.52V33.988A1.987,1.987,0,0,0,77.532,32Z" transform="translate(0 -32)"/>
</svg>
