<svg xmlns="http://www.w3.org/2000/svg" width="52.853" height="52.853" viewBox="0 0 52.853 52.853">
  <path id="poll-solid" d="M47.19,32H5.663A5.664,5.664,0,0,0,0,37.663V79.19a5.664,5.664,0,0,0,5.663,5.663H47.19a5.664,5.664,0,0,0,5.663-5.663V37.663A5.664,5.664,0,0,0,47.19,32ZM18.876,71.64a1.887,1.887,0,0,1-1.888,1.888H13.213a1.887,1.887,0,0,1-1.888-1.888v-15.1a1.887,1.887,0,0,1,1.888-1.888h3.775a1.887,1.887,0,0,1,1.888,1.888Zm11.326,0a1.887,1.887,0,0,1-1.888,1.888H24.539a1.887,1.887,0,0,1-1.888-1.888V45.213a1.887,1.887,0,0,1,1.888-1.888h3.775A1.887,1.887,0,0,1,30.2,45.213Zm11.326,0a1.887,1.887,0,0,1-1.888,1.888H35.864a1.887,1.887,0,0,1-1.888-1.888v-7.55A1.887,1.887,0,0,1,35.864,62.2H39.64a1.887,1.887,0,0,1,1.888,1.888Z" transform="translate(0 -32)" fill="#fff"/>
</svg>
