<svg xmlns="http://www.w3.org/2000/svg" width="64.501" height="56.438" viewBox="0 0 64.501 56.438">
  <path id="sort-amount-up-alt-solid" d="M30.23,40.063h8.063a2.016,2.016,0,0,0,2.016-2.016V34.016A2.016,2.016,0,0,0,38.293,32H30.23a2.016,2.016,0,0,0-2.016,2.016v4.031A2.016,2.016,0,0,0,30.23,40.063Zm0,16.125H46.355a2.016,2.016,0,0,0,2.016-2.016V50.141a2.016,2.016,0,0,0-2.016-2.016H30.23a2.016,2.016,0,0,0-2.016,2.016v4.031A2.016,2.016,0,0,0,30.23,56.188ZM62.48,80.375H30.23a2.016,2.016,0,0,0-2.016,2.016v4.031a2.016,2.016,0,0,0,2.016,2.016H62.48A2.016,2.016,0,0,0,64.5,86.422V82.391A2.016,2.016,0,0,0,62.48,80.375ZM30.23,72.312H54.418A2.016,2.016,0,0,0,56.434,70.3V66.266a2.016,2.016,0,0,0-2.016-2.016H30.23a2.016,2.016,0,0,0-2.016,2.016V70.3A2.016,2.016,0,0,0,30.23,72.312ZM2.012,48.125H8.059v38.3a2.016,2.016,0,0,0,2.016,2.016h4.031a2.016,2.016,0,0,0,2.016-2.016v-38.3h6.047a2.016,2.016,0,0,0,1.425-3.44L13.515,32.591a2.016,2.016,0,0,0-2.85,0L.587,44.685A2.018,2.018,0,0,0,2.012,48.125Z" transform="translate(0.004 -32)" fill="#fff"/>
</svg>
