<svg xmlns="http://www.w3.org/2000/svg" width="79.358" height="63.852" viewBox="0 0 79.358 63.852">
  <g id="www" transform="translate(-1175.821 -1211)">
    <path id="Path_5" data-name="Path 5" d="M11.072,14.942H70.29a3.836,3.836,0,0,1,3.866,3.866v4.667H7.2V18.808A3.835,3.835,0,0,1,11.072,14.942Zm0-1.9a5.768,5.768,0,0,0-5.76,5.761V66.98a5.765,5.765,0,0,0,5.76,5.76H59.79a.946.946,0,1,0,0-1.89H11.072A3.839,3.839,0,0,1,7.2,66.981V25.359H74.156V46.985a.945.945,0,0,0,1.891,0V18.808a5.769,5.769,0,0,0-5.756-5.761H11.072Z" transform="translate(1170.509 1197.953)" fill="#444447" fill-rule="evenodd"/>
    <path id="Path_6" data-name="Path 6" d="M67.238,48.756,82.056,63.563,77.634,65.4a.94.94,0,0,0-.511,1.229l2.636,6.344-4.245,1.754L72.879,68.37a.946.946,0,0,0-1.251-.5l-4.391,1.921V48.756Zm-1.89-2.281v24.76a.947.947,0,0,0,1.322.865L71.5,69.985l2.631,6.333a.942.942,0,0,0,1.234.509l5.984-2.473a.944.944,0,0,0,.51-1.24l-2.636-6.338,4.854-2a.947.947,0,0,0,.312-1.546L66.968,45.8A.946.946,0,0,0,65.348,46.475Z" transform="translate(1170.509 1197.953)" fill="#444447"/>
    <path id="Path_7" data-name="Path 7" d="M13.15,17.016a.938.938,0,0,0-.926.959v2.458a.945.945,0,1,0,1.889,0V17.975A.943.943,0,0,0,13.15,17.016Z" transform="translate(1170.509 1197.953)" fill="#444447"/>
    <path id="Path_8" data-name="Path 8" d="M18.009,17.016a.948.948,0,0,0-.932.959v2.458a.946.946,0,1,0,1.891,0V17.975A.94.94,0,0,0,18.009,17.016Z" transform="translate(1170.509 1197.953)" fill="#444447"/>
    <path id="Path_9" data-name="Path 9" d="M21.6,38.871a9.245,9.245,0,0,0,0,18.468H61.416a.943.943,0,1,0,0-1.886H21.6A7.1,7.1,0,0,1,14.7,48.1a7.093,7.093,0,0,1,6.9-7.344H60.176a6.619,6.619,0,0,1,4.371,1.645.943.943,0,1,0,1.238-1.421,8.523,8.523,0,0,0-5.609-2.115H21.6Z" transform="translate(1170.509 1197.953)" fill="#444447" fill-rule="evenodd"/>
    <path id="Path_10" data-name="Path 10" d="M21.369,44.458a.948.948,0,0,0-.77,1.38l2.681,5.391a.942.942,0,0,0,1.688,0l1.838-3.692,1.838,3.692a.945.945,0,0,0,1.692,0l2.688-5.391a.947.947,0,1,0-1.7-.839l-1.838,3.688L27.656,45a.943.943,0,0,0-1.688,0l-1.839,3.688L22.29,45A.948.948,0,0,0,21.369,44.458Z" transform="translate(1170.509 1197.953)" fill="#444447" fill-rule="evenodd"/>
    <path id="Path_11" data-name="Path 11" d="M35.446,44.458a.949.949,0,0,0-.771,1.38l2.683,5.391a.944.944,0,0,0,1.7,0l1.828-3.692,1.839,3.692a.945.945,0,0,0,1.692,0L47.1,45.838A.946.946,0,1,0,45.409,45l-1.838,3.688L41.732,45a.941.941,0,0,0-1.686,0l-1.839,3.683L36.369,45A.954.954,0,0,0,35.446,44.458Z" transform="translate(1170.509 1197.953)" fill="#444447" fill-rule="evenodd"/>
    <path id="Path_12" data-name="Path 12" d="M49.525,44.458a.946.946,0,0,0-.771,1.38l2.688,5.391a.945.945,0,0,0,1.692,0l1.833-3.692L56.8,51.229a.944.944,0,0,0,1.7,0l2.676-5.391A.943.943,0,1,0,59.489,45L57.65,48.681,55.812,45a.943.943,0,0,0-1.688,0l-1.838,3.688L50.446,45A.953.953,0,0,0,49.525,44.458Z" transform="translate(1170.509 1197.953)" fill="#444447" fill-rule="evenodd"/>
  </g>
</svg>
