<?xml version="1.0" encoding="UTF-8"?><svg xmlns="http://www.w3.org/2000/svg" viewBox="0 0 492.37 229.75"><defs><style>.d{fill:#b5a47a;}</style></defs><g id="a"/><g id="b"><g id="c"><g><g><path class="d" d="M252.09,84.39c-2.21,0-4.08-1.83-4.08-3.99s1.91-4.09,4.08-4.09,3.99,1.87,3.99,4.09-1.83,3.99-3.99,3.99Z"/><path class="d" d="M235.24,84.39c-2.29,0-4.08-1.75-4.08-3.99s1.79-4.09,4.08-4.09c2.12,0,3.9,1.87,3.9,4.09s-1.75,3.99-3.9,3.99Z"/><path class="d" d="M324.03,144.49c-2.18,0-4.09-1.91-4.09-4.09,0-2.3,1.83-4.18,4.09-4.18s4.08,1.91,4.08,4.18-1.91,4.09-4.08,4.09Z"/><path class="d" d="M324.03,142.84c-1.27,0-2.43-1.16-2.43-2.43,0-1.39,1.09-2.52,2.43-2.52s2.43,1.18,2.43,2.52c0,1.27-1.16,2.43-2.43,2.43Z"/><path class="d" d="M338.8,144.77c-2.18,0-4.08-1.91-4.08-4.09,0-2.29,1.79-4.09,4.08-4.09s4.08,1.79,4.08,4.09-1.91,4.09-4.08,4.09Z"/><path class="d" d="M338.8,143.11c-1.27,0-2.43-1.16-2.43-2.43,0-1.36,1.07-2.43,2.43-2.43s2.43,1.07,2.43,2.43c0,1.27-1.16,2.43-2.43,2.43Z"/><path class="d" d="M400.67,145.04c-2.36,0-4.36-2.04-4.36-4.45s2-4.54,4.36-4.54,4.45,2.08,4.45,4.54-2.08,4.45-4.45,4.45Z"/><path class="d" d="M400.67,143.38c-1.44,0-2.7-1.3-2.7-2.79s1.26-2.89,2.7-2.89c1.51,0,2.79,1.32,2.79,2.89,0,1.46-1.33,2.79-2.79,2.79Z"/><path class="d" d="M409.21,124.43l-.76-.14c-1.67-.21-4-.78-5.58-2.31l-2.25-2.17-2.3,2.12c-1.62,1.49-4.45,2.49-7.05,2.49h-50.21c-2.96,0-5.68-.91-7.27-2.45l-2.21-2.12-2.29,2.03c-1.76,1.56-4.48,2.54-7.09,2.54l-59-.33-.92-.11c-10.5-.85-11.06-6.91-11.65-13.32-.38-4.08-.94-10.26-7.11-10.26-3.94,0-7.14,3.2-7.14,7.14v16.55h-7.14v-17.19c0-7.82,6.36-14.18,14.18-14.18,12.26,0,14.09,10.94,14.09,17.46,0,2.62,1.92,5.68,7.32,5.68l50.44,.33c5.65,0,9.24-.17,11.46-2.55,2.18-2.33,1.97-5.36,1.63-10.39-.13-1.84-.27-4-.35-6.56h6.77c-.07,2.46-.21,4.54-.32,6.32-.33,4.95-.54,8.22,1.68,10.6,2.24,2.4,5.98,2.58,11.02,2.58h43.01c4.11,0,6.86-2.65,6.86-6.59v-12.91h6.86v12.73c0,4.11,2.66,6.77,6.77,6.77h50.89l-.84-3.99c-.38-1.81-.57-3.35-.57-4.69,0-9.03,6.89-16.37,15.37-16.37,4.63,0,9.18,2.36,12.06,6.08l-6.03,3.94c-1.46-1.18-3.37-1.88-5.39-1.88-4.69,0-8.51,3.82-8.51,8.5s3.82,8.41,8.51,8.41h16.19v8.23h-83.16Z"/></g><g><path class="d" d="M285.58,181.12c-.08,14.45-9.42,28.35-28.18,28.35s-28.18-13.98-28.18-28.5,9.34-28.27,28.18-28.27,28.26,13.58,28.18,28.42Zm-52.13-.08c.08,12.41,8.06,24.5,23.95,24.5s24.03-12.09,24.03-24.5-7.98-24.42-24.03-24.42-24.03,11.46-23.95,24.42Z"/><path class="d" d="M337.15,168.56c0,5.65-3.51,10.05-9.1,11.78,7.03,1.88,11.02,7.46,11.02,13.82,0,11.31-10.7,14.37-20.28,14.37h-22.91v-54.96h22.91c9.42,0,18.36,4.55,18.36,15Zm-36.96,9.89h19.16c6.71,0,13.73-2.04,13.73-9.89s-7.34-11.39-14.29-11.39h-18.6v21.28Zm0,25.99h18.6c7.03,0,16.05-1.65,16.05-10.37-.08-8.56-7.98-11.62-15.49-11.62h-19.16v21.99Z"/><path class="d" d="M393.83,208.52l-6.15-13.51h-33.37l-6.07,13.51h-4.63l25.07-54.96h4.71l25.07,54.96h-4.63Zm-7.82-17.43l-15.01-33.45-15.01,33.45h30.02Z"/><path class="d" d="M413.39,186.54l-21.79-32.9v-.08h5.03l18.92,28.9,19-28.9h5.03v.08l-21.88,32.9v21.99h-4.31v-21.99Z"/><path class="d" d="M487.39,208.52v-24.97h-35.61v24.97h-4.31v-54.96h4.31v26.15h35.61v-26.15h4.31v54.96h-4.31Z"/></g><path class="d" d="M298.81,85.02c2.16,.94,3.35,2.91,3.35,5.18,0,3.22-2.4,5.81-5.75,5.81-1.04,0-2.16-.24-2.95-.94-.56,.63-1.68,1.02-2.55,1.02-3.35,0-5.91-2.36-5.91-5.73,0-2.2,.96-4.4,3.11-5.26l1.52,3.3c-.72,.23-1.04,1.1-1.04,1.81,0,1.1,1.12,1.41,2.08,1.41,2.08,0,1.2-3.69,1.2-4.95h3.11c0,.79-.36,2.71,.05,3.89,.2,.58,.59,.98,1.3,.98,.96,0,2.08-.39,2.08-1.49,0-.63-.32-1.65-1.04-1.81l1.44-3.22Z"/></g><g><polygon class="d" points="44.76 135.72 61.6 117.84 61.58 117.79 58.2 109.61 36.28 132.9 38.76 188.69 0 229.75 11.18 229.75 47.25 191.5 44.76 135.72"/><path class="d" d="M114.89,185.82l-7.2,10.16-.12,.17,10.01,24.25h24.16l10.08-24.45-7.18-10.13h-29.75Zm9.17,19.01h-2.93l-3.8-8.65,.11-.1,5.04-4.18h1.58v12.93Zm14.13,0h-2.91v-12.93h1.57l5.04,4.18,.12,.1-3.82,8.65Z"/><polygon class="d" points="66.01 143.28 70.23 138.79 70.22 138.74 66.84 130.55 57.53 140.45 60.01 196.24 28.42 229.75 39.61 229.75 68.49 199.06 66.01 143.28"/><polygon class="d" points="88.72 183.6 88.72 183.59 88.28 182.53 79.35 160.89 81.26 203.79 56.83 229.75 67.97 229.75 89.74 206.61 88.72 183.6"/><polygon class="d" points="71.1 107.73 71.1 107.73 71.11 107.75 71.11 107.76 71.21 107.65 71.47 107.38 71.47 107.37 89.57 88.53 89.57 88.52 91.72 86.29 100.8 76.83 89.65 76.83 89.09 76.83 87.4 78.64 67.77 99.66 71.08 107.69 71.1 107.73"/><polygon class="d" points="148.54 173.17 169.68 76.83 147.66 76.83 147.81 76.98 106.96 119.72 103.66 104.98 130.48 76.83 118.34 76.83 94.98 101.15 110.79 173.17 148.54 173.17"/><polygon class="d" points="171.93 78.64 164.84 110.92 175.75 125.37 159.65 134.58 151.18 173.17 157.53 182.13 191.56 99.66 171.93 78.64"/><polygon class="d" points="85.19 229.75 107.77 229.75 100.88 213.08 85.19 229.75"/><polygon class="d" points="79.72 128.64 79.74 128.68 81.84 133.75 76.38 120.52 76.38 120.53 79.72 128.64"/><polygon class="d" points="81.84 133.75 88.18 149.12 86.88 145.96 97.42 171.53 95.7 167.37 101.12 180.52 101.12 180.51 101.87 182.33 101.87 182.32 108.2 173.39 99.68 134.58 83.58 125.37 94.49 110.92 92.84 103.39 76.39 120.51 83.83 138.57 81.84 133.75"/><polygon class="d" points="88.37 149.6 88.38 149.64 94.52 164.52 95.7 167.37 88.18 149.12 88.37 149.6"/><polygon class="d" points="76.36 120.46 76.38 120.52 76.39 120.51 76.36 120.46"/><polygon class="d" points="175.49 58.8 175.49 50.38 175.49 26.98 148.36 58.8 173.64 58.8 175.49 58.8"/><polygon class="d" points="154.03 27.35 129.67 0 105.31 27.35 129.67 54.7 154.03 27.35"/><polygon class="d" points="76.38 120.53 76.38 120.52 76.36 120.45 76.38 120.53"/><polygon class="d" points="85.69 58.8 110.97 58.8 83.84 26.98 83.84 58.8 84.9 58.8 85.69 58.8"/></g><polyline class="d" points="107.57 196.15 107.69 195.98 114.89 185.82"/></g></g></svg>