<svg id="icon-dashboard" xmlns="http://www.w3.org/2000/svg" width="27.713" height="18.259" viewBox="0 0 27.713 18.259">
  <path id="Path_1" data-name="Path 1" d="M22.864,9.47A13.846,13.846,0,0,0,0,19.989c0,.205.02,2.121.029,2.325v2.075H27.657V22.465l.026-.151c.008-.205.03-2.12.03-2.325A13.937,13.937,0,0,0,22.864,9.47ZM3.37,22.314c-.012-.126,0-1.966,0-2.092H6.209V19.3H3.566a1.234,1.234,0,0,0-.2,0A10.545,10.545,0,0,1,6.1,12.68l.072-.077.128.111,1.891,1.893.594-.6L6.772,12A10.394,10.394,0,0,1,13.36,9.277H13.5s.059,0,.056.035v2.8h.757V9.277a9.8,9.8,0,0,1,1.114.117A10.392,10.392,0,0,1,21.1,12.04l-2.005,2.007.558.56,1.926-1.927.106-.086.091.12A10.4,10.4,0,0,1,24.5,19.3H21.665v.918l2.852,0s0,1.975-.008,2.089Zm14.214-6.622s-4.507,1.382-5.37,2.244a2.212,2.212,0,0,0,3.128,3.129C16.2,20.2,17.584,15.692,17.584,15.692Z" transform="translate(0 -6.13)" fill="#fff"/>
</svg>
