<svg id="icon-user" xmlns="http://www.w3.org/2000/svg" width="25.056" height="30.032" viewBox="0 0 25.056 30.032">
  <path id="Path_2097" data-name="Path 2097" d="M94.265,14.467a7,7,0,0,0,5.115-2.119A7,7,0,0,0,101.5,7.233a7,7,0,0,0-2.119-5.114,7.232,7.232,0,0,0-10.229,0,7,7,0,0,0-2.119,5.114,7,7,0,0,0,2.119,5.115A7,7,0,0,0,94.265,14.467ZM90.4,3.363a5.472,5.472,0,0,1,7.74,0,5.229,5.229,0,0,1,1.6,3.87,5.229,5.229,0,0,1-1.6,3.87,5.471,5.471,0,0,1-7.74,0,5.228,5.228,0,0,1-1.6-3.87,5.229,5.229,0,0,1,1.6-3.87Zm0,0" transform="translate(-81.927 0)" fill="#fff"/>
  <path id="Path_2098" data-name="Path 2098" d="M24.995,255.9a17.865,17.865,0,0,0-.243-1.9,14.951,14.951,0,0,0-.467-1.908,9.425,9.425,0,0,0-.785-1.779,6.708,6.708,0,0,0-1.183-1.541,5.214,5.214,0,0,0-1.7-1.067,5.872,5.872,0,0,0-2.169-.392,2.2,2.2,0,0,0-1.176.5c-.352.23-.765.5-1.225.79a7.017,7.017,0,0,1-1.585.7,6.153,6.153,0,0,1-3.876,0,7,7,0,0,1-1.583-.7c-.456-.291-.868-.557-1.226-.79a2.2,2.2,0,0,0-1.175-.5,5.864,5.864,0,0,0-2.169.393,5.21,5.21,0,0,0-1.7,1.067,6.709,6.709,0,0,0-1.182,1.541A9.442,9.442,0,0,0,.77,252.1,14.986,14.986,0,0,0,.3,254.005a17.744,17.744,0,0,0-.243,1.9c-.04.574-.06,1.17-.06,1.773a4.987,4.987,0,0,0,1.481,3.773A5.331,5.331,0,0,0,5.3,262.841h14.46a5.332,5.332,0,0,0,3.816-1.392,4.985,4.985,0,0,0,1.481-3.773c0-.605-.021-1.2-.061-1.774Zm-2.634,4.272a3.589,3.589,0,0,1-2.6.907H5.3a3.59,3.59,0,0,1-2.6-.907,3.256,3.256,0,0,1-.935-2.5c0-.563.019-1.118.056-1.652a16,16,0,0,1,.22-1.709,13.218,13.218,0,0,1,.41-1.682,7.688,7.688,0,0,1,.638-1.447,4.973,4.973,0,0,1,.869-1.139,3.459,3.459,0,0,1,1.13-.7,4.05,4.05,0,0,1,1.386-.267c.062.033.171.1.349.211.362.236.779.5,1.24.8a8.719,8.719,0,0,0,1.989.889,7.912,7.912,0,0,0,4.959,0,8.731,8.731,0,0,0,1.99-.889c.472-.3.877-.563,1.239-.8.178-.116.288-.178.349-.211a4.053,4.053,0,0,1,1.386.267,3.464,3.464,0,0,1,1.13.7,4.96,4.96,0,0,1,.869,1.139,7.661,7.661,0,0,1,.639,1.446,13.187,13.187,0,0,1,.411,1.682,16.139,16.139,0,0,1,.22,1.71h0c.037.531.056,1.087.056,1.651a3.256,3.256,0,0,1-.935,2.5Zm0,0" transform="translate(0 -232.81)" fill="#fff"/>
</svg>
