<svg id="logo_white" xmlns="http://www.w3.org/2000/svg" xmlns:xlink="http://www.w3.org/1999/xlink" width="124.96" height="63.232" viewBox="0 0 124.96 63.232">
  <defs>
    <clipPath id="clip-path">
      <rect id="Rectangle_1572" data-name="Rectangle 1572" width="124.96" height="63.232" fill="#fff"/>
    </clipPath>
  </defs>
  <g id="Group_17818" data-name="Group 17818" clip-path="url(#clip-path)">
    <path id="Path_11729" data-name="Path 11729" d="M20.729,3.836a1.944,1.944,0,0,1-1.94-1.9A1.991,1.991,0,0,1,20.729,0a1.944,1.944,0,0,1,1.9,1.94,1.922,1.922,0,0,1-1.9,1.9" transform="translate(-9.867)" fill="#fff"/>
    <path id="Path_11730" data-name="Path 11730" d="M3.872,3.836a1.9,1.9,0,0,1-1.94-1.9A1.919,1.919,0,0,1,3.872,0,1.923,1.923,0,0,1,5.725,1.94a1.877,1.877,0,0,1-1.853,1.9" transform="translate(-1.015)" fill="#fff"/>
    <path id="Path_11731" data-name="Path 11731" d="M92.669,63.849a1.991,1.991,0,0,1-1.94-1.94,1.964,1.964,0,0,1,1.94-1.983,1.962,1.962,0,0,1,0,3.923" transform="translate(-47.646 -31.47)" fill="#fff"/>
    <path id="Path_11732" data-name="Path 11732" d="M93.539,63.932a1.2,1.2,0,0,1-1.154-1.154,1.177,1.177,0,0,1,1.154-1.2,1.176,1.176,0,0,1,0,2.351" transform="translate(-48.516 -32.339)" fill="#fff"/>
    <path id="Path_11733" data-name="Path 11733" d="M107.432,64.17a1.991,1.991,0,0,1-1.94-1.94,1.94,1.94,0,1,1,3.88,0,1.991,1.991,0,0,1-1.94,1.94" transform="translate(-55.399 -31.661)" fill="#fff"/>
    <path id="Path_11734" data-name="Path 11734" d="M108.3,64.253a1.2,1.2,0,0,1-1.153-1.154,1.153,1.153,0,1,1,2.307,0,1.2,1.2,0,0,1-1.153,1.154" transform="translate(-56.268 -32.53)" fill="#fff"/>
    <path id="Path_11735" data-name="Path 11735" d="M169.16,64.012a2.12,2.12,0,0,1-2.07-2.113,2.092,2.092,0,1,1,4.183,0,2.168,2.168,0,0,1-2.113,2.113" transform="translate(-87.746 -31.374)" fill="#fff"/>
    <path id="Path_11736" data-name="Path 11736" d="M170.03,64.1a1.339,1.339,0,0,1-1.284-1.327,1.306,1.306,0,1,1,2.61,0A1.379,1.379,0,0,1,170.03,64.1" transform="translate(-88.616 -32.243)" fill="#fff"/>
    <path id="Path_11737" data-name="Path 11737" d="M85.489,30.643l-.359-.065a4.7,4.7,0,0,1-2.651-1.1l-1.068-1.03L80.321,29.46a5.25,5.25,0,0,1-3.347,1.184H53.133a5.071,5.071,0,0,1-3.453-1.161l-1.048-1.008-1.087.966a5.257,5.257,0,0,1-3.369,1.2l-28.018-.157-.435-.052c-4.987-.4-5.252-3.281-5.532-6.327-.179-1.939-.448-4.871-3.378-4.871a3.394,3.394,0,0,0-3.39,3.39v7.86H.034V22.323a6.743,6.743,0,0,1,6.735-6.735c5.823,0,6.692,5.2,6.692,8.293,0,1.245.911,2.7,3.476,2.7l23.95.158c2.683,0,4.389-.082,5.444-1.21,1.034-1.107.935-2.547.773-4.932-.059-.872-.129-1.9-.165-3.117h3.213c-.033,1.166-.1,2.157-.154,3-.155,2.351-.256,3.9.8,5.031s2.842,1.227,5.234,1.227H76.455a3.027,3.027,0,0,0,3.26-3.13V17.476h3.259v6.043a3.014,3.014,0,0,0,3.217,3.216h24.167l-.4-1.9a10.878,10.878,0,0,1-.269-2.228,7.556,7.556,0,0,1,7.3-7.774,7.392,7.392,0,0,1,5.726,2.886l-2.865,1.871a4.09,4.09,0,0,0-2.559-.892,4.017,4.017,0,1,0,0,8.034h7.687v3.909Z" transform="translate(-0.018 -7.791)" fill="#fff"/>
    <path id="Path_11738" data-name="Path 11738" d="M26.764,89.886c-.038,6.861-4.473,13.461-13.382,13.461S0,96.709,0,89.811C0,82.8,4.435,76.388,13.381,76.388s13.42,6.45,13.382,13.5M2.009,89.849c.038,5.891,3.829,11.633,11.372,11.633,7.582,0,11.411-5.742,11.411-11.633,0-6.041-3.791-11.6-11.411-11.6S1.971,83.7,2.009,89.849" transform="translate(0 -40.115)" fill="#fff"/>
    <path id="Path_11739" data-name="Path 11739" d="M86.258,84.374a5.747,5.747,0,0,1-4.322,5.593,6.7,6.7,0,0,1,5.231,6.562c0,5.369-5.08,6.823-9.629,6.823H66.659v-26.1h10.88c4.473,0,8.719,2.162,8.719,7.121m-17.552,4.7h9.1c3.185,0,6.521-.969,6.521-4.7,0-3.8-3.488-5.407-6.786-5.407H68.706Zm0,12.342h8.833c3.336,0,7.62-.783,7.62-4.922-.038-4.064-3.791-5.518-7.355-5.518h-9.1Z" transform="translate(-35.006 -40.569)" fill="#fff"/>
    <path id="Path_11740" data-name="Path 11740" d="M138.242,103.353l-2.918-6.413H119.477l-2.881,6.413h-2.2l11.9-26.1h2.236l11.9,26.1Zm-3.714-8.278L127.4,79.192l-7.127,15.884Z" transform="translate(-60.075 -40.569)" fill="#fff"/>
    <path id="Path_11741" data-name="Path 11741" d="M172.725,92.913,162.376,77.29v-.038h2.388l8.984,13.721,9.023-13.721h2.389v.038L174.772,92.913v10.44h-2.047Z" transform="translate(-85.271 -40.569)" fill="#fff"/>
    <path id="Path_11742" data-name="Path 11742" d="M237.212,103.353V91.5H220.3v11.857h-2.048v-26.1H220.3V89.669h16.907V77.253h2.047v26.1Z" transform="translate(-114.616 -40.569)" fill="#fff"/>
    <path id="Path_11743" data-name="Path 11743" d="M56.071,3.692l-.531-1.53L61.3,0l.531,1.566Zm6.141.447A2.606,2.606,0,0,1,63.8,6.6a2.689,2.689,0,0,1-2.73,2.759,2.106,2.106,0,0,1-1.4-.448,1.766,1.766,0,0,1-1.213.485,2.677,2.677,0,0,1-2.805-2.722,2.56,2.56,0,0,1,1.479-2.5l.72,1.567a.877.877,0,0,0-.493.858c0,.521.531.67.986.67.986,0,.569-1.752.569-2.35h1.478a5.868,5.868,0,0,0,.026,1.847.616.616,0,0,0,.618.465c.455,0,.986-.187.986-.709,0-.3-.151-.783-.492-.858Z" transform="translate(-29.167)" fill="#fff"/>
  </g>
</svg>
