<?xml version="1.0" encoding="UTF-8"?><svg xmlns="http://www.w3.org/2000/svg" viewBox="0 0 263.15 133.16"><g id="a"/><g id="b"><g id="c"><g><g><path d="M22.87,8.08c-2.21,0-4.08-1.83-4.08-3.99S20.7,0,22.87,0s3.99,1.87,3.99,4.09-1.83,3.99-3.99,3.99Z"/><path d="M6.02,8.08c-2.29,0-4.08-1.75-4.08-3.99S3.73,0,6.02,0c2.12,0,3.9,1.87,3.9,4.09s-1.75,3.99-3.9,3.99Z"/><path d="M94.82,68.19c-2.18,0-4.09-1.91-4.09-4.09,0-2.3,1.83-4.18,4.09-4.18s4.08,1.91,4.08,4.18-1.91,4.09-4.08,4.09Z"/><path d="M94.82,66.53c-1.27,0-2.43-1.16-2.43-2.43,0-1.39,1.09-2.52,2.43-2.52s2.43,1.18,2.43,2.52c0,1.27-1.16,2.43-2.43,2.43Z"/><path d="M109.58,68.46c-2.18,0-4.08-1.91-4.08-4.09,0-2.29,1.79-4.09,4.08-4.09s4.08,1.79,4.08,4.09-1.91,4.09-4.08,4.09Z"/><path d="M109.58,66.81c-1.27,0-2.43-1.16-2.43-2.43,0-1.36,1.07-2.43,2.43-2.43s2.43,1.07,2.43,2.43c0,1.27-1.16,2.43-2.43,2.43Z"/><path d="M171.45,68.73c-2.36,0-4.36-2.04-4.36-4.45s2-4.54,4.36-4.54,4.45,2.08,4.45,4.54-2.08,4.45-4.45,4.45Z"/><path d="M171.45,67.08c-1.44,0-2.7-1.3-2.7-2.79s1.26-2.89,2.7-2.89c1.51,0,2.79,1.32,2.79,2.89,0,1.46-1.33,2.79-2.79,2.79Z"/><path d="M180,48.12l-.76-.14c-1.67-.21-4-.78-5.58-2.31l-2.25-2.17-2.3,2.12c-1.62,1.49-4.45,2.49-7.05,2.49h-50.21c-2.96,0-5.68-.91-7.27-2.45l-2.21-2.12-2.29,2.03c-1.76,1.56-4.48,2.54-7.09,2.54l-59-.33-.92-.11c-10.5-.85-11.06-6.91-11.65-13.32-.38-4.08-.94-10.26-7.11-10.26-3.94,0-7.14,3.2-7.14,7.14v16.55H.03V30.6C.03,22.78,6.4,16.42,14.22,16.42c12.26,0,14.09,10.94,14.09,17.46,0,2.62,1.92,5.68,7.32,5.68l50.44,.33c5.65,0,9.24-.17,11.46-2.55,2.18-2.33,1.97-5.36,1.63-10.39-.13-1.84-.27-4-.35-6.56h6.77c-.07,2.46-.21,4.54-.32,6.32-.33,4.95-.54,8.22,1.68,10.6,2.24,2.4,5.98,2.58,11.02,2.58h43.01c4.11,0,6.86-2.65,6.86-6.59v-12.91h6.86v12.73c0,4.11,2.66,6.77,6.77,6.77h50.89l-.84-3.99c-.38-1.81-.57-3.35-.57-4.69,0-9.03,6.89-16.37,15.37-16.37,4.63,0,9.18,2.36,12.06,6.08l-6.03,3.94c-1.46-1.18-3.37-1.88-5.39-1.88-4.69,0-8.51,3.82-8.51,8.5s3.82,8.41,8.51,8.41h16.19v8.23h-83.16Z"/></g><g><path d="M56.36,104.81c-.08,14.45-9.42,28.35-28.18,28.35S0,119.18,0,104.66s9.34-28.27,28.18-28.27,28.26,13.58,28.18,28.42Zm-52.13-.08c.08,12.41,8.06,24.5,23.95,24.5s24.03-12.09,24.03-24.5-7.98-24.42-24.03-24.42-24.03,11.46-23.95,24.42Z"/><path d="M107.93,92.25c0,5.65-3.51,10.05-9.1,11.78,7.03,1.88,11.02,7.46,11.02,13.82,0,11.31-10.7,14.37-20.28,14.37h-22.91v-54.96h22.91c9.42,0,18.36,4.55,18.36,15Zm-36.96,9.89h19.16c6.71,0,13.73-2.04,13.73-9.89s-7.34-11.39-14.29-11.39h-18.6v21.28Zm0,25.99h18.6c7.03,0,16.05-1.65,16.05-10.37-.08-8.56-7.98-11.62-15.49-11.62h-19.16v21.99Z"/><path d="M164.61,132.22l-6.15-13.51h-33.37l-6.07,13.51h-4.63l25.07-54.96h4.71l25.07,54.96h-4.63Zm-7.82-17.43l-15.01-33.45-15.01,33.45h30.02Z"/><path d="M184.17,110.23l-21.79-32.9v-.08h5.03l18.92,28.9,19-28.9h5.03v.08l-21.88,32.9v21.99h-4.31v-21.99Z"/><path d="M258.17,132.22v-24.97h-35.61v24.97h-4.31v-54.96h4.31v26.15h35.61v-26.15h4.31v54.96h-4.31Z"/></g><path d="M69.59,8.71c2.16,.94,3.35,2.91,3.35,5.18,0,3.22-2.4,5.81-5.75,5.81-1.04,0-2.16-.24-2.95-.94-.56,.63-1.68,1.02-2.55,1.02-3.35,0-5.91-2.36-5.91-5.73,0-2.2,.96-4.4,3.11-5.26l1.52,3.3c-.72,.23-1.04,1.1-1.04,1.81,0,1.1,1.12,1.41,2.08,1.41,2.08,0,1.2-3.69,1.2-4.95h3.11c0,.79-.36,2.71,.05,3.89,.2,.58,.59,.98,1.3,.98,.96,0,2.08-.39,2.08-1.49,0-.63-.32-1.65-1.04-1.81l1.44-3.22Z"/></g></g></g></svg>