<svg xmlns="http://www.w3.org/2000/svg" width="42.29" height="32.31" viewBox="0 0 42.29 32.31">
  <g id="icon-store" transform="translate(-6.797 -35.4)">
    <path id="Path_12987" data-name="Path 12987" d="M62.35,129h-5.5a.856.856,0,0,0-.855.855v4.519a.856.856,0,0,0,.855.855h5.5a.856.856,0,0,0,.855-.855v-4.519A.856.856,0,0,0,62.35,129Zm-.855,4.519h-3.8V130.71h3.8Z" transform="translate(-40.619 -77.27)" fill="#484848"/>
    <path id="Path_12988" data-name="Path 12988" d="M113.75,129h-5.5a.856.856,0,0,0-.855.855v4.519a.856.856,0,0,0,.855.855h5.5a.856.856,0,0,0,.855-.855v-4.519A.856.856,0,0,0,113.75,129Zm-.855,4.519h-3.8V130.71h3.8Z" transform="translate(-83.052 -77.27)" fill="#484848"/>
    <path id="Path_12989" data-name="Path 12989" d="M165.25,129h-5.5a.856.856,0,0,0-.855.855v4.519a.856.856,0,0,0,.855.855h5.5a.856.856,0,0,0,.855-.855v-4.519A.856.856,0,0,0,165.25,129Zm-.855,4.519h-3.8V130.71h3.8Z" transform="translate(-125.567 -77.27)" fill="#484848"/>
    <path id="Path_12990" data-name="Path 12990" d="M48.982,45.048l-3-9.055a.859.859,0,0,0-.8-.593H10.723a.822.822,0,0,0-.8.593L6.9,45.048a.765.765,0,0,0-.1.4.871.871,0,0,0,.855.872,4.681,4.681,0,0,1,3.105,1.256c.122.122.262.244.4.366l-.017,18.912a.9.9,0,0,0,.244.611A.872.872,0,0,0,12,67.71H43.888a.856.856,0,0,0,.855-.855V47.926a3.307,3.307,0,0,0,.366-.331,4.823,4.823,0,0,1,3.14-1.274.88.88,0,0,0,.837-.872A1.052,1.052,0,0,0,48.982,45.048ZM43.033,65.983H12.851V62.546H43.016Zm0-5.129H12.851l.017-12.02a5.143,5.143,0,0,0,1.465.227,5.029,5.029,0,0,0,3.576-1.483,4.716,4.716,0,0,1,6.438.017,5.14,5.14,0,0,0,7.188,0,4.734,4.734,0,0,1,6.438-.017A5,5,0,0,0,41.55,49.06a5.362,5.362,0,0,0,1.483-.227Zm.89-14.5a3.416,3.416,0,0,1-.366.314,1,1,0,0,0-.279.192,3.316,3.316,0,0,1-4.1-.506,6.5,6.5,0,0,0-8.828,0,3.6,3.6,0,0,1-2.408.994,3.479,3.479,0,0,1-2.425-.994,6.489,6.489,0,0,0-4.449-1.727,6.172,6.172,0,0,0-4.379,1.745,3.313,3.313,0,0,1-2.355.977,3.417,3.417,0,0,1-1.692-.454.867.867,0,0,0-.331-.227,2.931,2.931,0,0,1-.366-.314,6.4,6.4,0,0,0-3.123-1.605l2.53-7.624h33.2l2.53,7.624A6.29,6.29,0,0,0,43.923,46.356Z" transform="translate(0)" fill="#484848"/>
  </g>
</svg>
