<svg id="icon-lock" xmlns="http://www.w3.org/2000/svg" width="29.684" height="39.578" viewBox="0 0 29.684 39.578">
  <path id="Path_267" data-name="Path 267" d="M28.973,33.736H6.71A3.715,3.715,0,0,1,3,30.026V12.71A3.715,3.715,0,0,1,6.71,9H28.973a3.715,3.715,0,0,1,3.71,3.71V30.026A3.715,3.715,0,0,1,28.973,33.736ZM6.71,11.474A1.238,1.238,0,0,0,5.474,12.71V30.026A1.238,1.238,0,0,0,6.71,31.263H28.973a1.238,1.238,0,0,0,1.237-1.237V12.71a1.238,1.238,0,0,0-1.237-1.237Z" transform="translate(-3 5.842)" fill="#484848"/>
  <path id="Path_268" data-name="Path 268" d="M24.552,17.315a1.237,1.237,0,0,1-1.237-1.237V9.895a7.421,7.421,0,1,0-14.842,0v6.184a1.237,1.237,0,0,1-2.474,0V9.895a9.895,9.895,0,1,1,19.789,0v6.184A1.237,1.237,0,0,1,24.552,17.315Z" transform="translate(-1.053)" fill="#484848"/>
  <path id="Path_269" data-name="Path 269" d="M13.3,19.6a3.3,3.3,0,1,1,3.3-3.3A3.3,3.3,0,0,1,13.3,19.6Zm0-4.123a.825.825,0,1,0,.825.825A.826.826,0,0,0,13.3,15.474Z" transform="translate(1.544 8.438)" fill="#484848"/>
  <path id="Path_270" data-name="Path 270" d="M12.487,22.759a1.237,1.237,0,0,1-1.237-1.237V16.987a1.237,1.237,0,0,1,2.474,0v4.535A1.237,1.237,0,0,1,12.487,22.759Z" transform="translate(2.355 10.223)" fill="#484848"/>
</svg>
