<svg id="icon-brown-like" xmlns="http://www.w3.org/2000/svg" width="52.457" height="49.178" viewBox="0 0 52.457 49.178">
  <g id="Icon-Like" transform="translate(0 0)">
    <path id="Fill-4_2_" d="M-18.8-493.474c0-3.5-2.732-5.355-6.557-5.355H-36.392a33.769,33.769,0,0,0,1.2-8.2c0-9.508-2.623-11.475-4.918-11.475a6.629,6.629,0,0,0-4.153,1.093,1.58,1.58,0,0,0-.765,1.093l-1.639,8.852c-1.749,4.7-6.229,8.743-9.836,11.475V-472.6a9.9,9.9,0,0,1,4.153,1.421,12.818,12.818,0,0,0,5.683,1.749h15.628c3.279,0,5.683-2.623,5.683-4.918a4.1,4.1,0,0,0-.109-1.2,4.858,4.858,0,0,0,3.388-4.481,5.7,5.7,0,0,0-.546-2.514,5.373,5.373,0,0,0,2.514-4.044,4.561,4.561,0,0,0-1.093-2.732,5.558,5.558,0,0,0,2.4-4.153Zm-3.388,0c0,2.076-2.186,2.3-2.514,3.279-.328,1.093,1.311,1.53,1.311,3.5,0,2.076-2.514,2.076-2.841,3.06-.437,1.2.765,1.639.765,3.606v.328c-.328,1.639-2.841,1.749-3.279,2.4-.437.765.109,1.2.109,2.951,0,.984-1.093,1.639-2.4,1.639H-46.664a9.9,9.9,0,0,1-4.153-1.421,18.461,18.461,0,0,0-4.044-1.639v-17.376c4.044-3.06,9.289-7.759,11.366-13.442,0-.109,0-.219.109-.219l1.53-8.2A4.55,4.55,0,0,1-40-515.221c.328,0,1.639,1.967,1.639,8.2a30.223,30.223,0,0,1-1.311,8.2h-.437a1.681,1.681,0,0,0-1.639,1.639,1.681,1.681,0,0,0,1.639,1.639h14.754c1.639,0,3.169.765,3.169,2.076Z" transform="translate(71.254 518.5)" fill="#bfae7a"/>
    <path id="Fill-6_2_" d="M-56.886-469.322h-9.836A3.22,3.22,0,0,1-70-472.6v-22.95a3.22,3.22,0,0,1,3.279-3.279h9.836a3.22,3.22,0,0,1,3.279,3.279v22.95a3.22,3.22,0,0,1-3.279,3.279Zm-9.836-26.228v22.95h9.836v-22.95ZM-70-518.5" transform="translate(70 518.5)" fill="#bfae7a"/>
  </g>
</svg>
