<svg xmlns="http://www.w3.org/2000/svg" width="23.904" height="23.904" viewBox="0 0 23.904 23.904">
  <path id="icon-lang" d="M11.952,0A11.952,11.952,0,1,0,23.9,11.952,11.952,11.952,0,0,0,11.952,0ZM22.289,16.139l-3.4.587a17.836,17.836,0,0,0,.625-4.375H23.1a11.081,11.081,0,0,1-.808,3.789ZM.807,12.351H4.389a17.836,17.836,0,0,0,.625,4.375l-3.4-.587a11.081,11.081,0,0,1-.808-3.789Zm.808-4.586,3.4-.587a17.836,17.836,0,0,0-.625,4.375H.807a11.081,11.081,0,0,1,.808-3.789ZM12.351,6.4a27.408,27.408,0,0,1,4.271.39l1.406.243a17.1,17.1,0,0,1,.691,4.524H12.351ZM16.757,6a28.24,28.24,0,0,0-4.407-.4V.819c2.284.219,4.268,2.311,5.392,5.354Zm-5.2-.4A28.235,28.235,0,0,0,7.147,6l-.986.171C7.286,3.128,9.27,1.036,11.554.817ZM7.283,6.787a27.4,27.4,0,0,1,4.271-.39v5.157H5.185a17.1,17.1,0,0,1,.691-4.524Zm-2.1,5.564h6.368v5.157a27.408,27.408,0,0,1-4.271-.39l-1.406-.243a17.1,17.1,0,0,1-.691-4.524ZM7.147,17.9a28.335,28.335,0,0,0,4.407.4v4.781c-2.284-.22-4.268-2.311-5.392-5.354Zm5.2.4a28.333,28.333,0,0,0,4.406-.4l.986-.171c-1.124,3.044-3.108,5.136-5.392,5.355Zm4.271-1.189a27.4,27.4,0,0,1-4.271.39V12.351h6.368a17.1,17.1,0,0,1-.691,4.524Zm2.894-5.564a17.836,17.836,0,0,0-.625-4.375l3.4.587a11.081,11.081,0,0,1,.808,3.789Zm2.371-4.667-3.258-.562a10.986,10.986,0,0,0-3.17-4.96,11.208,11.208,0,0,1,6.428,5.522ZM8.446,1.364a10.986,10.986,0,0,0-3.17,4.96l-3.258.562A11.208,11.208,0,0,1,8.446,1.364ZM2.018,17.017l3.258.562a10.986,10.986,0,0,0,3.17,4.96,11.208,11.208,0,0,1-6.428-5.522Zm13.44,5.522a10.986,10.986,0,0,0,3.17-4.96l3.258-.562a11.208,11.208,0,0,1-6.428,5.522Zm0,0"/>
</svg>
